<svg version="1.1" id="Layer_1" xmlns="http://www.w3.org/2000/svg" x="0" y="0" viewBox="0 0 976.9 164.8" xml:space="preserve"><style>.st0{fill:#279184}.st1{fill:#949598}</style><path class="st0" d="M79.3 163.4H54.8L51.5 138H25.9l-3 25.4H0l23.1-162h32.8l23.4 162zM28.7 116h20.1L38.6 34.2 28.7 116zM290.5 163.4H266l-3.2-25.4h-25.7l-3 25.4h-22.9l23.1-162h32.8l23.4 162zM239.8 116H260l-10.2-81.8-10 81.8zM97.3 163.4V24.1H75.1V1.7h69.1v22.4H122v139.3H97.3zM369.5 108.4v26.3c0 20.1-9.9 30-30 30h-10.9c-20.1 0-29.8-9.9-29.8-29.8v-34.2h24V134c0 6.2 3 9.2 9.5 9.2h3.2c6.5 0 9.5-3 9.5-9.2v-22.2c0-6.7-2.3-9.7-6.9-13.2l-25-18.3c-11.1-7.9-14.3-15.5-14.3-28v-22c0-20.1 9.9-30 30-30h10.4c19.9 0 29.8 9.9 29.8 29.8v29.3h-24.3V31c0-6.2-3-9.2-9.2-9.2h-3c-6.2 0-9.2 3-9.2 9.2v18c0 6.7 2.3 9.9 6.9 13.2l25 18.3c10.8 7.8 14.3 14.7 14.3 27.9zM178.5 0v139.3h27.3v22.4h-52V0h24.7zM372.7 164.8v-9.9h-1.9v-1.2h5.2v1.2h-2v9.9h-1.3zm5.4-8.7v8.7h-1.2v-11.1h1.8l1.7 9 1.8-9h1.7v11.1h-1.2v-8.7l-1.8 8.7h-1.2l-1.6-8.7z"/><g><path class="st1" d="M421.7 42.9l-1-6.8h-7.5l-.9 6.8h-4.5l6.3-41h6l6.3 41h-4.7zm-7.9-11h6.4L417 9.2l-3.2 22.7zM432.3 2h7.7c6.1 0 9.1 2.9 9.1 9.1v22.8c0 6.1-2.9 9.1-9.1 9.1h-7.7V2zm4.7 36.7h2.8c3.2 0 4.6-1.6 4.6-4.7V11c0-3.2-1.5-4.7-4.6-4.7H437v32.4zM456.2 2h7.7c6.1 0 9.1 2.9 9.1 9.1v22.8c0 6.1-2.9 9.1-9.1 9.1h-7.7V2zm4.6 36.7h2.8c3.2 0 4.6-1.6 4.6-4.7V11c0-3.2-1.5-4.7-4.6-4.7h-2.8v32.4zM484.8 42.9h-4.7V2h4.7v40.9zM508.6 27.2v8.5c0 5.1-2.5 7.6-7.6 7.6h-1.5c-5.1 0-7.6-2.5-7.6-7.6V9.3c0-5.1 2.5-7.6 7.6-7.6h1.5c5 0 7.5 2.5 7.5 7.5v7.4h-4.6V9c0-2.1-1-3.1-3.1-3.1h-1.2c-2.1 0-3.1 1-3.1 3.1v26.9c0 2.1 1 3.1 3.1 3.1h1.3c2.1 0 3.1-1 3.1-3.1v-8.7h4.6zM519.4 42.9V6.3h-6.1V2h17v4.3h-6.1v36.6h-4.8zM540.5 42.9h-4.7V2h4.7v40.9zM557 43.3h-1.8c-5.1 0-7.6-2.5-7.6-7.6V9.3c0-5.1 2.5-7.6 7.6-7.6h1.8c5.1 0 7.6 2.5 7.6 7.6v26.4c0 5.1-2.5 7.6-7.6 7.6zm-.2-37.4h-1.4c-2.1 0-3.1 1-3.1 3.1v26.9c0 2.1 1 3.1 3.1 3.1h1.4c2.1 0 3.1-1 3.1-3.1V9c0-2.1-1-3.1-3.1-3.1zM576.1 10.9v32h-4.4V2h6.4l6.8 29.5V2h4.4v40.9h-5.8l-7.4-32zM610.8 42.9V6.3h-6.1V2h17v4.3h-6.1v36.6h-4.8zM643.5 29.1v13.8h-4.7V29.3c0-2.5-1.1-3.6-3.6-3.6h-3.4v17.2h-4.7V2h8.7c5.1 0 7.6 2.5 7.6 7.6v7.6c0 3.7-1.3 5.5-3.6 6.4 2.6.7 3.7 2.4 3.7 5.5zm-7.8-22.8h-3.9v15.3h3.5c2.3 0 3.4-1.1 3.4-3.5V9.4c.1-2.1-.9-3.1-3-3.1zM663.5 2v4.3h-8.2v13.6h7.9v4.3h-7.9v14.4h8.3v4.3h-13V2h12.9zM682.7 42.9l-1-6.8h-7.5l-.9 6.8h-4.5l6.3-41h6l6.3 41h-4.7zm-8-11h6.4l-3.2-22.7-3.2 22.7zM695.4 42.9V6.3h-6.1V2h17v4.3h-6.1v36.6h-4.8zM736.8 2v40.9h-4.6V9.1L726.6 43h-4.8l-5.6-33.9V43h-4.4V2h7.4l5.2 32.3L729.6 2h7.2zM756.9 2v4.3h-8.2v13.6h7.9v4.3h-7.9v14.4h8.3v4.3h-13V2h12.9zM768 10.9v32h-4.4V2h6.4l6.8 29.5V2h4.4v40.9h-5.8l-7.4-32zM792.9 42.9V6.3h-6.1V2h17v4.3h-6.1v36.6h-4.8zM823.8 2v36.6h7.7v4.3h-12.4V2h4.7zM846.3 43.3h-1.8c-5.1 0-7.6-2.5-7.6-7.6V9.3c0-5.1 2.5-7.6 7.6-7.6h1.8c5.1 0 7.6 2.5 7.6 7.6v26.4c0 5.1-2.5 7.6-7.6 7.6zm-.1-37.4h-1.4c-2.1 0-3.1 1-3.1 3.1v26.9c0 2.1 1 3.1 3.1 3.1h1.4c2.1 0 3.1-1 3.1-3.1V9c0-2.1-1-3.1-3.1-3.1zM877.6 27.2v8.5c0 5.1-2.5 7.6-7.6 7.6h-1.5c-5.1 0-7.6-2.5-7.6-7.6V9.3c0-5.1 2.5-7.6 7.6-7.6h1.5c5 0 7.5 2.5 7.5 7.5v7.4h-4.6V9c0-2.1-1-3.1-3.1-3.1h-1.2c-2.1 0-3.1 1-3.1 3.1v26.9c0 2.1 1 3.1 3.1 3.1h1.3c2.1 0 3.1-1 3.1-3.1v-8.7h4.6zM896.9 42.9l-1-6.8h-7.5l-.9 6.8H883l6.3-41h6l6.3 41h-4.7zm-7.9-11h6.4l-3.2-22.7-3.2 22.7zM909.7 42.9V6.3h-6.1V2h17v4.3h-6.1v36.6h-4.8zM934.7 43.3H933c-5.1 0-7.6-2.5-7.6-7.6V9.3c0-5.1 2.5-7.6 7.6-7.6h1.8c5.1 0 7.6 2.5 7.6 7.6v26.4c-.1 5.1-2.6 7.6-7.7 7.6zm-.2-37.4h-1.4c-2.1 0-3.1 1-3.1 3.1v26.9c0 2.1 1 3.1 3.1 3.1h1.4c2.1 0 3.1-1 3.1-3.1V9c0-2.1-1-3.1-3.1-3.1zM965.8 29.1v13.8h-4.7V29.3c0-2.5-1.1-3.6-3.6-3.6h-3.4v17.2h-4.7V2h8.7c5.1 0 7.6 2.5 7.6 7.6v7.6c0 3.7-1.3 5.5-3.6 6.4 2.5.7 3.7 2.4 3.7 5.5zm-7.9-22.8H954v15.3h3.5c2.3 0 3.4-1.1 3.4-3.5V9.4c.1-2.1-.9-3.1-3-3.1zM976.9 40.7c0 2.5-.2 3.3-1.5 5.4l-1.2 1.9-1.9-.5.7-1.5c.5-1.2.8-2.2.9-3h-1.6v-6.8h4.6v4.5zM421.7 96.6l-1-6.8h-7.5l-.9 6.8h-4.5l6.3-41h6l6.3 41h-4.7zm-7.9-11.1h6.4L417 62.8l-3.2 22.7zM436.7 64.5v32h-4.4V55.7h6.4l6.8 29.5V55.7h4.4v40.9h-5.8l-7.4-32.1zM469.9 96.6l-1-6.8h-7.5l-.9 6.8H456l6.3-41h6l6.3 41h-4.7zm-8-11.1h6.4l-3.2-22.7-3.2 22.7zM485.2 55.7v36.6h7.7v4.3h-12.4V55.7h4.7zM505.2 82.3v14.3h-4.7v-14l-6.6-27h4.8l4.2 20.1 4.3-20.1h4.6l-6.6 26.7zM532.9 83.4v6c0 5.1-2.5 7.6-7.6 7.6H524c-5 0-7.5-2.5-7.5-7.5v-8.6h4.6v8.8c0 2.1 1 3.1 3.1 3.1h.9c2.1 0 3.1-1 3.1-3.1v-6.1c0-2-.7-2.9-2-3.9l-5.7-4.2c-3-2.2-3.9-4.3-3.9-7.6V63c0-5.1 2.5-7.6 7.6-7.6h1.2c5 0 7.5 2.5 7.5 7.5v7.4h-4.6v-7.5c0-2.1-1-3.1-3.1-3.1h-.8c-2.1 0-3.1 1-3.1 3.1v5.1c0 2 .8 2.9 2.1 3.9l5.7 4.1c2.9 2 3.8 4 3.8 7.5zM544.6 96.6h-4.7V55.7h4.7v40.9zM568 83.4v6c0 5.1-2.5 7.6-7.6 7.6h-1.3c-5 0-7.5-2.5-7.5-7.5v-8.6h4.6v8.8c0 2.1 1 3.1 3.1 3.1h.9c2.1 0 3.1-1 3.1-3.1v-6.1c0-2-.7-2.9-2-3.9l-5.7-4.2c-3-2.2-3.9-4.3-3.9-7.6V63c0-5.1 2.5-7.6 7.6-7.6h1.2c5 0 7.5 2.5 7.5 7.5v7.4h-4.6v-7.5c0-2.1-1-3.1-3.1-3.1h-.8c-2.1 0-3.1 1-3.1 3.1v5.1c0 2 .8 2.9 2.1 3.9l5.7 4.1c2.9 2 3.8 4 3.8 7.5zM579 94.3c0 2.5-.2 3.3-1.5 5.4l-1.2 1.9-1.9-.5.7-1.5c.5-1.2.8-2.2.9-3h-1.6v-6.8h4.6v4.5zM608.3 96.6l-1-6.8h-7.5l-.9 6.8h-4.5l6.3-41h6l6.3 41h-4.7zm-8-11.1h6.4l-3.2-22.7-3.2 22.7zM623.3 64.5v32h-4.4V55.7h6.4l6.8 29.5V55.7h4.4v40.9h-5.8l-7.4-32.1zM643.7 55.7h7.7c6.1 0 9.1 2.9 9.1 9.1v22.8c0 6.1-2.9 9.1-9.1 9.1h-7.7v-41zm4.7 36.6h2.8c3.2 0 4.6-1.6 4.6-4.7V64.7c0-3.2-1.5-4.7-4.6-4.7h-2.8v32.3zM693.5 83.4v6c0 5.1-2.5 7.6-7.6 7.6h-1.3c-5 0-7.5-2.5-7.5-7.5v-8.6h4.6v8.8c0 2.1 1 3.1 3.1 3.1h.9c2.1 0 3.1-1 3.1-3.1v-6.1c0-2-.7-2.9-2-3.9l-5.7-4.2c-3-2.2-3.9-4.3-3.9-7.6V63c0-5.1 2.5-7.6 7.6-7.6h1.2c5 0 7.5 2.5 7.5 7.5v7.4h-4.6v-7.5c0-2.1-1-3.1-3.1-3.1h-.8c-2.1 0-3.1 1-3.1 3.1v5.1c0 2 .8 2.9 2.1 3.9l5.7 4.1c2.9 2 3.8 4 3.8 7.5zM704.3 96.6V60h-6.1v-4.3h17V60H709v36.6h-4.7zM731.1 96.6l-1-6.8h-7.5l-.9 6.8h-4.5l6.3-41h6l6.3 41h-4.7zm-7.9-11.1h6.4l-3.2-22.7-3.2 22.7zM746.2 64.5v32h-4.4V55.7h6.4l6.8 29.5V55.7h4.4v40.9h-5.8l-7.4-32.1zM766.6 55.7h7.7c6.1 0 9.1 2.9 9.1 9.1v22.8c0 6.1-2.9 9.1-9.1 9.1h-7.7v-41zm4.6 36.6h2.8c3.2 0 4.6-1.6 4.6-4.7V64.7c0-3.2-1.5-4.7-4.6-4.7h-2.8v32.3zM802.6 96.6l-1-6.8h-7.5l-.9 6.8h-4.5l6.3-41h6l6.3 41h-4.7zm-8-11.1h6.4l-3.2-22.7-3.2 22.7zM829.6 82.8v13.8h-4.7V83c0-2.5-1.1-3.6-3.6-3.6h-3.4v17.2h-4.7V55.7h8.7c5.1 0 7.6 2.5 7.6 7.6v7.6c0 3.7-1.3 5.5-3.6 6.4 2.5.7 3.7 2.3 3.7 5.5zm-7.9-22.9h-3.9v15.3h3.5c2.3 0 3.4-1.1 3.4-3.5V63c.1-2.1-.9-3.1-3-3.1zM836.6 55.7h7.7c6.1 0 9.1 2.9 9.1 9.1v22.8c0 6.1-2.9 9.1-9.1 9.1h-7.7v-41zm4.7 36.6h2.8c3.2 0 4.6-1.6 4.6-4.7V64.7c0-3.2-1.5-4.7-4.6-4.7h-2.8v32.3zM876.7 83.4v6c0 5.1-2.5 7.6-7.6 7.6h-1.3c-5 0-7.5-2.5-7.5-7.5v-8.6h4.6v8.8c0 2.1 1 3.1 3.1 3.1h.9c2.1 0 3.1-1 3.1-3.1v-6.1c0-2-.7-2.9-2-3.9l-5.7-4.2c-3-2.2-3.9-4.3-3.9-7.6V63c0-5.1 2.5-7.6 7.6-7.6h1.2c5 0 7.5 2.5 7.5 7.5v7.4H872v-7.5c0-2.1-1-3.1-3.1-3.1h-.8c-2.1 0-3.1 1-3.1 3.1v5.1c0 2 .8 2.9 2.1 3.9l5.7 4.1c3 2 3.9 4 3.9 7.5zM897.9 96.6V60h-6.1v-4.3h17V60h-6.1v36.6h-4.8zM922.9 96.9h-1.8c-5.1 0-7.6-2.5-7.6-7.6V62.9c0-5.1 2.5-7.6 7.6-7.6h1.8c5.1 0 7.6 2.5 7.6 7.6v26.4c0 5.1-2.5 7.6-7.6 7.6zm-.2-37.3h-1.4c-2.1 0-3.1 1-3.1 3.1v26.9c0 2.1 1 3.1 3.1 3.1h1.4c2.1 0 3.1-1 3.1-3.1V62.7c0-2.1-1-3.1-3.1-3.1zM946.8 96.9H945c-5.1 0-7.6-2.5-7.6-7.6V62.9c0-5.1 2.5-7.6 7.6-7.6h1.8c5.1 0 7.6 2.5 7.6 7.6v26.4c0 5.1-2.5 7.6-7.6 7.6zm-.2-37.3h-1.4c-2.1 0-3.1 1-3.1 3.1v26.9c0 2.1 1 3.1 3.1 3.1h1.4c2.1 0 3.1-1 3.1-3.1V62.7c0-2.1-1-3.1-3.1-3.1zM966.2 55.7v36.6h7.7v4.3h-12.4V55.7h4.7z"/><g><path class="st0" d="M419.8 153.5v6.3c0 3.3-1.7 5-5 5h-2c-3.3 0-5-1.7-5-5v-17.4c0-3.3 1.7-5 5-5h2c3.3 0 5 1.6 5 5v5.5h-4v-5.3c0-1.1-.5-1.6-1.5-1.6h-.7c-1.1 0-1.6.5-1.6 1.6v17c0 1.1.5 1.6 1.6 1.6h.8c1 0 1.5-.5 1.5-1.6v-6.1h3.9zM441.6 155.4v9.2h-4.1v-9.1c0-1.2-.5-1.7-1.7-1.7H434v10.8h-4.1v-26.9h6.8c3.3 0 5 1.7 5 5v5.1c0 2.4-.8 3.5-2.3 4.2 1.5.3 2.2 1.4 2.2 3.4zm-5.7-14.1h-2v8.9h1.8c1.2 0 1.7-.5 1.7-1.7v-5.7c0-1-.5-1.5-1.5-1.5zM460.8 137.6v3.7h-5v7.6h4.8v3.7h-4.8v8.1h5.1v3.7h-9.2v-26.9h9.1zM483.1 164.6H479l-.5-4.2h-4.3l-.5 4.2h-3.8l3.8-27h5.5l3.9 27zm-8.4-7.9h3.3l-1.7-13.6-1.6 13.6zM493.8 164.6v-23.2h-3.7v-3.7h11.5v3.7H498v23.2h-4.2zM520.1 137.6v3.7h-5v7.6h4.8v3.7h-4.8v8.1h5.1v3.7H511v-26.9h9.1zM530.1 137.6h6.2c4 0 5.9 1.9 5.9 5.9v15.2c0 4-1.9 5.9-5.9 5.9h-6.2v-27zm4.1 23.3h1.5c1.6 0 2.3-.8 2.3-2.4v-14.9c0-1.6-.7-2.4-2.3-2.4h-1.5v19.7zM576.6 154.6v5c0 3.3-1.7 5-5 5h-6.7v-26.9h6.7c3.3 0 5 1.7 5 5v4c0 2.4-.8 3.6-2.3 4.1 1.5.5 2.3 1.6 2.3 3.8zm-5.7-13.4h-2v7.9h1.8c1.2 0 1.7-.6 1.7-1.7v-4.6c0-1.1-.5-1.6-1.5-1.6zm-2 19.7h2c1 0 1.5-.5 1.5-1.5v-5.1c0-1.2-.5-1.7-1.7-1.7h-1.9v8.3zM593.8 155v9.6h-4.1v-9.2l-4.4-17.8h4.2l2.3 11.5 2.5-11.5h4l-4.5 17.4zM631.5 155.4v4.4c0 3.3-1.7 5-5 5h-1.8c-3.3 0-5-1.7-5-5v-5.7h4v5.5c0 1 .5 1.5 1.6 1.5h.5c1.1 0 1.6-.5 1.6-1.5V156c0-1.1-.4-1.6-1.2-2.2l-4.2-3c-1.8-1.3-2.4-2.6-2.4-4.7v-3.7c0-3.3 1.7-5 5-5h1.7c3.3 0 5 1.7 5 5v4.9h-4v-4.7c0-1-.5-1.5-1.5-1.5h-.5c-1 0-1.5.5-1.5 1.5v3c0 1.1.4 1.7 1.2 2.2l4.2 3c1.7 1.3 2.3 2.4 2.3 4.6zM649.5 149v-11.4h4.1v26.9h-4.1v-11.9h-4v11.9h-4.1v-26.9h4.1V149h4zM676.2 164.6h-4.1l-.5-4.2h-4.3l-.5 4.2H663l3.8-27h5.5l3.9 27zm-8.4-7.9h3.3l-1.7-13.6-1.6 13.6zM686.9 164.6v-23.2h-3.7v-3.7h11.5v3.7H691v23.2h-4.1zM706.9 164.6v-23.2h-3.7v-3.7h11.5v3.7H711v23.2h-4.1zM733.2 137.6v3.7h-5v7.6h4.8v3.7h-4.8v8.1h5.1v3.7h-9.2v-26.9h9.1zM755 155.4v9.2h-4.1v-9.1c0-1.2-.5-1.7-1.7-1.7h-1.8v10.8h-4.1v-26.9h6.8c3.3 0 5 1.7 5 5v5.1c0 2.4-.8 3.5-2.3 4.2 1.5.3 2.2 1.4 2.2 3.4zm-5.7-14.1h-2v8.9h1.8c1.2 0 1.7-.5 1.7-1.7v-5.7c0-1-.5-1.5-1.5-1.5zM769.2 164.6h-4.1v-26.9h6.5c3.3 0 5 1.7 5 5v7.2c0 3.3-1.7 5-5 5h-2.3v9.7zm1.7-23.4h-1.7v9.9h1.7c1 0 1.5-.5 1.5-1.6v-6.8c0-1-.5-1.5-1.5-1.5zM798.1 155.4v9.2H794v-9.1c0-1.2-.5-1.7-1.7-1.7h-1.8v10.8h-4.1v-26.9h6.8c3.3 0 5 1.7 5 5v5.1c0 2.4-.8 3.5-2.3 4.2 1.5.3 2.2 1.4 2.2 3.4zm-5.7-14.1h-2v8.9h1.8c1.2 0 1.7-.5 1.7-1.7v-5.7c0-1-.5-1.5-1.5-1.5zM815.3 164.8h-2.2c-3.3 0-5-1.7-5-5v-17.4c0-3.3 1.7-5 5-5h2.2c3.3 0 5 1.7 5 5v17.4c0 3.3-1.6 5-5 5zm-.6-23.8h-.8c-1.1 0-1.6.5-1.6 1.6v17c0 1.1.5 1.6 1.6 1.6h.8c1 0 1.5-.5 1.5-1.6v-17c0-1.1-.5-1.6-1.5-1.6zM837.5 164.8h-2.2c-3.3 0-5-1.7-5-5v-17.4c0-3.3 1.7-5 5-5h2.2c3.3 0 5 1.7 5 5v17.4c0 3.3-1.6 5-5 5zm-.6-23.8h-.9c-1.1 0-1.6.5-1.6 1.6v17c0 1.1.5 1.6 1.6 1.6h.8c1 0 1.5-.5 1.5-1.6v-17c.1-1.1-.4-1.6-1.4-1.6zM861.6 137.6v3.7h-4.8v7.8h4.7v3.7h-4.7v11.7h-4.1v-26.9h8.9z"/></g></g></svg>