<svg version="1.1" id="Layer_1" xmlns="http://www.w3.org/2000/svg" x="0" y="0" viewBox="0 0 977.3 165.1" xml:space="preserve"><style>.st0{fill:#fefefe}.st1{fill:#959799}.st2{fill:#2a9285}</style><g id="MLKWTv.tif"><path class="st0" d="M327 165.1H0V1.1C0 .2.2 0 1.1 0h975.1c.9 0 1.1.2 1.1 1.1v35.3h-3.9c-.6 0-.8.2-.8.8v5.3c0 .5.1.9.7.8.8-.1.9.4.6 1-.4 1-.8 1.9-1.1 2.9-.1.2-.4.4 0 .7.7.5 1.7.3 2.2-.4 1.3-1.8 2.2-3.8 2.3-6.1v122.5c0 .9-.2 1.1-1.1 1.1H839.1v-.2c2.3-.5 3.6-1.7 3.6-3.9.1-6.5.1-12.9 0-19.4 0-2-1.3-3.4-3.3-3.9-1.4-.3-2.8-.2-4.2-.2-3 .1-4.6 1.6-4.7 4.6-.1 6.1-.1 12.1 0 18.2 0 2.8 1.3 4.1 3.8 4.5v.2h-17.5c-.1-.1-.1-.1 0-.2 2.5-.4 3.8-1.8 3.8-4.4v-18.4c0-2.6-1.4-4.1-3.8-4.4-1.5-.2-3.1-.2-4.7 0-2.3.4-3.7 1.8-3.7 4.1-.1 6.3-.1 12.7 0 19 0 2.4 1.4 3.8 3.9 4.1v.2H628c-.1-.1-.1-.1 0-.2 2.4-.3 3.8-1.7 3.9-4.1.1-1.9 0-3.8 0-5.7 0-1.6-.7-2.9-2-3.9-.9-.7-1.7-1.5-2.7-2-2.6-1.3-3.3-3.4-3-6.1.2-1.4.5-1.9 1.9-1.9 1.3 0 1.7.5 1.7 1.9v1.2c0 3.3 0 3.3 3.3 3.1.5 0 .8-.1.8-.7 0-1.6.1-3.3 0-4.9-.1-2.4-1.4-3.7-3.7-4.1-1.4-.2-2.8-.2-4.2 0-2.4.4-3.7 1.8-3.8 4.2-.1 1.5 0 3 0 4.5-.1 2 .8 3.4 2.4 4.6 1.4 1 2.7 2 4.1 3 .6.5 1.2 1 1.2 1.8.1 1.4.1 2.9 0 4.3-.1 1.2-1 1.2-2 1.2-.9 0-1.6-.3-1.6-1.3v-2.6c0-3.2 0-3.2-3.2-3.1h-.1c-.6-.1-.8.2-.7.8 0 2 0 3.9.1 5.9.1 2.4 1.4 3.7 3.8 4v.2H416.7c-.1-.1-.1-.1 0-.2 2.4-.3 3.7-1.7 3.8-4.1.1-1.3 0-2.6 0-3.9 0-3.3 0-3.3-3.3-3.2-.7 0-.9.2-.9.9v5c0 1.3-.4 1.7-1.8 1.8-1.5 0-2-.4-2-1.7v-7.4-9.3c0-1.2.4-1.5 1.8-1.5 1.5 0 1.9.3 1.9 1.5v2.2c0 3.4 0 3.4 3.4 3.2.6 0 .8-.2.8-.8 0-1.8.1-3.7 0-5.5-.1-2.7-1.6-4.1-4.4-4.3h-2.3c-3.8 0-5.4 1.6-5.4 5.4v14.5c0 1.2-.1 2.5.1 3.7.3 2.2 1.4 3.4 3.7 3.8v.1c0 .1 0 .1-.1.1h-37.4c0-2.9.1-5.9 0-8.8 0-.9.2-1.4 1.2-1.2.4.1.8 0 .8-.6s-.3-.6-.7-.6h-3.5c-.4 0-1-.3-1 .6 0 .8.5.7 1 .6.6-.1.9.1.9.9v9.2h-31.2v-.2c2.5 0 5-.3 7.5-.8 7.3-1.5 13.2-4.9 16.9-11.6 2.4-4.4 3.6-9.2 3.6-14.1.2-10.8.1-21.6.1-32.3 0-4.1-.7-8.1-2.3-11.9-2.3-5.4-6.3-9.3-10.9-12.7-8.8-6.5-17.7-13-26.6-19.4-3.8-2.7-6.2-6.2-6.3-10.9-.1-7.1-.1-14.1 0-21.2.1-4.2 2.4-6.9 6.5-7.6 2.8-.5 5.6-.4 8.4 0 3.4.5 5.5 2.5 6.2 5.9.2.9.3 1.8.3 2.7v27.4c0 1 .2 1.3 1.3 1.3 7.2-.1 14.4-.1 21.6 0 1.2 0 1.6-.2 1.5-1.5-.1-9.2 0-18.4 0-27.6 0-3.2-.2-6.4-.9-9.5-1.6-7.9-5.5-14.1-13-17.6-4.1-1.9-8.5-2.8-13-2.9-4.8-.1-9.6 0-14.4-.1-3.2 0-6.3.3-9.4 1-8.5 2-14.6 6.7-17.6 15-1.5 4.1-2.1 8.4-2.1 12.8 0 8.8-.2 17.6.1 26.5.2 7.3 2.4 13.8 7.5 19.1 2.5 2.6 5.5 4.8 8.4 6.9 8 5.8 16 11.7 24 17.5 3.8 2.7 6.1 6.3 6.1 11.1.1 8.2.1 16.5 0 24.7-.1 4.4-2.3 7.1-6.4 7.8-3.3.6-6.6.6-9.9-.2-2.7-.6-4.6-2.4-5.3-5.1-.3-1.1-.4-2.2-.4-3.3v-32.3c0-1-.2-1.3-1.2-1.3-7.2 0-14.3.1-21.5 0-1.1 0-1.5.3-1.5 1.4v33.2c0 3 .3 6.1.9 9 1.7 7.9 5.6 14.1 13.2 17.5 4.4 2 9.1 2.7 13.9 2.8-.4.1-.4.1-.4.2zM40.1 1.8H24.6c-.7 0-1.2.1-1.3 1-.7 5.2-1.5 10.4-2.2 15.6-1.2 8.1-2.3 16.2-3.5 24.3-1.2 8.7-2.5 17.4-3.7 26-1.2 8.2-2.3 16.3-3.5 24.5-1.2 8.1-2.3 16.2-3.5 24.3-1.1 7.6-2.2 15.2-3.2 22.7-1.1 7.5-2.1 14.9-3.2 22.4-.1.8.1 1.1 1 1.1h20.9c.8 0 1.1-.3 1.1-1 .3-2.9.7-5.8 1-8.7.6-5 1.2-9.9 1.7-14.9.1-.6.2-.9.9-.9h24c.6 0 .8.2.9.8.3 2.7.7 5.4 1 8.1.7 5.2 1.3 10.4 2 15.7.1.6.3.9 1 .9h22.9c.7 0 .8-.2.7-.8l-3-20.4c-1.2-8-2.3-16.1-3.5-24.1-1.1-7.5-2.2-14.9-3.2-22.4-1.2-8-2.3-16-3.5-24-1.2-8.6-2.5-17.2-3.7-25.8-1.2-8.1-2.3-16.2-3.5-24.3L56.5 3c-.1-.9-.5-1.1-1.4-1.1-4.9-.1-10-.1-15-.1zm238.5 161.8h11.3c.6 0 1.1 0 .9-.9-.9-5.7-1.7-11.4-2.5-17-1.2-8.5-2.5-17-3.7-25.6-1.2-8.1-2.3-16.2-3.5-24.3-1.2-8.6-2.5-17.1-3.7-25.7-1.2-8-2.3-16-3.5-24-1.2-8.6-2.5-17.2-3.7-25.8-.9-5.9-1.7-11.8-2.5-17.6-.1-.7-.3-.9-1-.9h-31.1c-.7 0-1 .3-1.1.9-.6 4.7-1.3 9.3-2 14-1.2 8.1-2.3 16.2-3.5 24.3-1.2 8.7-2.5 17.4-3.7 26.2-1.2 8.6-2.5 17.2-3.7 25.8-1.2 8.2-2.3 16.3-3.5 24.5-1.1 7.5-2.2 15.1-3.2 22.6-1.1 7.5-2.1 15-3.2 22.5-.1.8.1 1.1 1 1.1h20.8c.9 0 1.2-.3 1.2-1.1.9-7.7 1.8-15.4 2.7-23.2.1-.8.3-1.1 1.2-1.1H262c1 0 1.2.3 1.3 1.2.9 7.8 1.9 15.5 2.9 23.3.1.7.4 1 1.1 1 3.7-.2 7.5-.2 11.3-.2zM122.4 94V25.7c0-1 .2-1.3 1.3-1.3 6.6.1 13.2 0 19.8 0 .9 0 1.2-.2 1.2-1.2v-20c0-1-.2-1.3-1.2-1.3H76.7c-1 0-1.2.3-1.2 1.2v20.1c0 .9.2 1.1 1.1 1.1h19.6c1.6 0 1.6 0 1.6 1.6V162c0 1.1.2 1.6 1.5 1.5 7.3-.1 14.6-.1 21.8 0 1.2 0 1.5-.2 1.5-1.5-.2-22.5-.2-45.3-.2-68zm31.7-12.9v79.5c0 1.1.3 1.3 1.3 1.3h49.5c1 0 1.3-.2 1.3-1.2v-20c0-1-.3-1.3-1.3-1.3h-24.3c-1.9 0-1.7.3-1.7-1.6V1.8c0-1.1-.2-1.5-1.4-1.5-7.3.1-14.6.1-21.9 0-1.2 0-1.5.3-1.5 1.5v79.3zm570.6-47.5h-.3c-.2-1.4-.4-2.8-.6-4.1-1.4-8.6-2.8-17.3-4.2-25.9-.1-1-.5-1.2-1.4-1.1-1.7.1-3.4.1-5 0-1.1-.1-1.3.3-1.3 1.3v36.4c0 1-.4 2.3.2 3 .7.7 2 .1 3 .2s1.4-.2 1.3-1.3V12.2c0-.4-.1-.9.2-1.4.2 1.4.4 2.7.6 4 1.5 9 3 17.9 4.5 26.9.3 1.8.3 1.8 2.1 1.8 3 0 3 0 3.5-2.9l3-18.3c.6-3.4 1.2-6.8 1.8-10.4.3.6.2 1 .2 1.4V40c0 1.1-.5 2.5.3 3.2.7.7 2.1.1 3.2.2.9.1 1.2-.2 1.2-1.2V20.3 3.5c0-.8-.2-1.1-1.1-1.1-1.8.1-3.6.1-5.4 0-.7 0-1 .2-1 .9-.1 1.1-.3 2.2-.5 3.3-1.1 6.7-2.2 13.4-3.3 20-.3 2.4-.6 4.7-1 7zm21.7 32.5h.2c.5 2.2 1 4.3 1.5 6.5 1.8 7.7 3.5 15.4 5.3 23.1.2.8.4 1.3 1.4 1.2 1.2-.1 2.4-.1 3.6 0 1.1.1 1.3-.3 1.3-1.3V59.2c0-3.2 0-3.2-3.2-3.2-1.1 0-1.3.4-1.3 1.4v26.8c-.3-.4-.4-.8-.5-1.2-2-8.6-4-17.2-5.9-25.9-.2-1-.6-1.2-1.5-1.2-1.3.1-2.6.1-4 0-1.1-.1-1.3.3-1.3 1.3v36.4c0 1-.4 2.3.2 3 .7.6 2 .1 3 .2s1.3-.2 1.3-1.3V67.3c-.1-.3-.1-.7-.1-1.2zm-309.3.3h.2c.5 2.2 1 4.3 1.5 6.5 1.8 7.6 3.5 15.2 5.2 22.8.2 1 .6 1.2 1.5 1.2 1.1-.1 2.2-.1 3.4 0 1.1.1 1.4-.2 1.4-1.4V59.2c0-3.3 0-3.3-3.3-3.3-1 0-1.2.3-1.2 1.3v27.4c-.9-3.2-1.7-6.5-2.4-9.7-1.4-5.9-2.7-11.9-4.1-17.8-.2-.9-.5-1.2-1.4-1.1-1.3.1-2.6.1-4 0-1.1-.1-1.4.3-1.4 1.4v36.4c0 3.2 0 3.1 3.2 3.2 1.1 0 1.4-.3 1.4-1.4V67.8v-1.4zm186.5-.3h.1c.1.4.2.7.3 1.1 2.2 9.5 4.4 19 6.5 28.5.2.8.5 1.2 1.4 1.1 1.1-.1 2.2 0 3.2 0 1.6 0 1.6 0 1.6-1.5V59c0-1 .4-2.3-.2-2.9-.7-.7-2-.1-3-.3-1.1-.1-1.4.3-1.4 1.4v25.6c0 .4.1.8-.2 1.3-.1-.5-.2-.8-.3-1.2l-6-26.1c-.2-.7-.4-1-1.2-1H620c-.8 0-1.1.2-1.1 1.1v38.9c0 .7.2 1 .9 1 .8-.1 1.7-.1 2.5 0 .9.1 1.1-.3 1.1-1.2V81.1c.2-4.9.2-9.9.2-15zm144.7-53.6h.1c.1.3.2.5.2.8 2.2 9.5 4.4 19.1 6.6 28.6.2 1.1.6 1.6 1.8 1.5 1.1-.1 2.2-.1 3.2 0s1.2-.3 1.2-1.2V3.6c0-.9-.2-1.3-1.2-1.2-.7.1-1.4.1-2.2 0-1-.1-1.3.3-1.3 1.3v26.8c-.4-.7-.6-1.5-.7-2.2-1.9-8.3-3.8-16.5-5.7-24.8-.2-.8-.5-1-1.3-1-1.4.1-2.9.1-4.3 0-.9 0-1.2.2-1.2 1.2v38.6c0 .9.2 1.4 1.2 1.2.6-.1 1.3-.1 1.9 0 1.3.2 1.5-.3 1.5-1.5.2-9.9.2-19.7.2-29.5zM585 30.2h-.2c-.4-1.8-.9-3.7-1.3-5.5-1.6-7-3.2-14-4.8-21.1-.2-.9-.6-1.3-1.6-1.2-1.3.1-2.6.1-4 0-1.2-.1-1.4.3-1.4 1.4v36.7c0 2.9 0 2.9 3 2.9 1.6 0 1.6 0 1.6-1.5V12.5c.4.3.4.7.5 1.1 2.2 9.5 4.4 19 6.5 28.5.2.9.4 1.5 1.5 1.3 1.1-.1 2.2-.1 3.4 0 1.1.1 1.3-.3 1.3-1.3V17.7 3.6c0-.8-.2-1.2-1.1-1.1-.7.1-1.4.1-2 0-1.1-.1-1.5.2-1.5 1.4.1 8.4 0 16.8 0 25.2.1.3.1.7.1 1.1zM962.4 24c2.5-1.1 3.3-3.1 3.4-5.4.1-3.2.3-6.4 0-9.6-.4-4.7-2.8-6.6-7.6-6.6-2.5 0-5 .1-7.4 0-1.1 0-1.4.3-1.4 1.4V40c0 1.1-.5 2.4.2 3.1.7.8 2.1.1 3.2.3 1.1.2 1.3-.3 1.3-1.3-.1-4.9 0-9.9 0-14.8 0-.8.2-1.2 1.1-1.1.9.1 1.8 0 2.6 0 2.2.1 3.3 1.2 3.3 3.4v10.2c0 1.2-.5 2.6.2 3.4.7.8 2.3.1 3.4.3.9.1 1.2-.2 1.2-1.1 0-4.1-.1-8.1 0-12.2.1-2.8-.4-5.1-3.5-6.2zm-322 0c2.7-1.4 3.4-3.6 3.4-6.1V9.4c-.1-4.5-2.7-7-7.1-7-2.6 0-5.3.1-7.9 0-1.1 0-1.3.3-1.3 1.4v38.7c0 .7.2 1 1 .9.7-.1 1.4 0 2.2 0 1.7 0 1.7 0 1.7-1.6V29.7c0-1.1-.5-2.8.2-3.3 1.1-.7 2.8-.4 4.2-.1 1.6.3 2.2 1.1 2.4 2.7v13c0 1.1.3 1.4 1.4 1.3.7-.1 1.4-.1 2.2 0 1 .1 1.3-.2 1.3-1.2-.1-4.2-.1-8.3 0-12.5-.3-2.4-.8-4.5-3.7-5.6zm185.9 53.6c2.4-1.2 3.3-3.1 3.4-5.3.1-3.2.1-6.5 0-9.7-.1-3.7-2.4-6.1-6.1-6.5-3-.3-5.9 0-8.9-.2-1.1 0-1.4.2-1.4 1.4v34.8c0 1.2.1 2.4 0 3.6-.1 1 .3 1.2 1.2 1.2.8-.1 1.7-.1 2.5 0 .9.1 1.1-.3 1.1-1.1V83.2c0-1.1-.5-2.5.3-3.2.7-.6 2.1-.2 3.1-.2 2.5 0 3.4.9 3.4 3.4v10.1c0 1.1-.5 2.6.2 3.4.8.8 2.3.1 3.4.3.9.1 1.1-.3 1.1-1.1 0-4.2-.1-8.4 0-12.6.2-2.7-.5-4.7-3.3-5.7zm10.4-1.2v19.3c0 .6-.1 1.2.9 1.2 2.9-.1 5.8.1 8.8-.1 2.9-.2 5.3-1.4 6.5-4.3.5-1.3.8-2.6.8-4 0-8.1.1-16.2 0-24.3-.1-5-2.7-7.6-7.6-8.2-2.7-.3-5.4 0-8-.2-1.1-.1-1.4.3-1.3 1.4-.1 6.4-.1 12.8-.1 19.2zM456.4 22.8v19.4c0 .5-.2 1.2.8 1.1 3.2-.1 6.4.3 9.6-.2 3-.5 5.1-2 6-5.1.4-1.5.6-3.1.6-4.6V15c0-1.8 0-3.6-.2-5.4-.3-3.7-2.5-6.3-6.2-7-3.1-.5-6.2-.1-9.3-.3-1-.1-1.2.3-1.2 1.3-.1 6.5-.1 12.9-.1 19.2zm-23.8.1v19.3c0 .9.2 1.2 1.2 1.2 2.4-.1 4.7 0 7.1 0 5.3-.1 8.4-2.8 8.5-7.7.1-8.5.1-17.1 0-25.6-.1-4.2-2.4-6.7-6.5-7.4-3-.5-6-.1-9-.2-1 0-1.3.2-1.3 1.2v19.2zm334.2 53.4v19.3c0 1 .3 1.3 1.3 1.3 2.4-.1 4.9 0 7.3 0 5.1-.1 8.2-3 8.2-8.1.1-8.2.1-16.4 0-24.6 0-4.8-2.7-7.6-7.5-8.1-2.7-.3-5.4 0-8-.2-1-.1-1.3.3-1.3 1.3v19.1zm-122.8 0v19.4c0 .8.2 1.2 1.1 1.2 2.6-.1 5.1 0 7.7 0 4.9-.1 8-3 8-7.9.1-8.3.1-16.6 0-24.9 0-4.8-2.8-7.5-7.5-7.9-2.7-.3-5.3 0-8-.2-1 0-1.3.3-1.3 1.3v19zm-79.2-53.4c0-4.8.1-9.6 0-14.4-.1-3.4-2.2-5.9-5.4-6.4-2-.3-4.1-.3-6.1 0-2.7.4-4.5 2-5.2 4.7-.3 1.1-.4 2.3-.4 3.4v26.5c.3 2.9 1.2 5.4 4.3 6.3 2.7.8 5.5.8 8.3 0 2.7-.7 4.3-3 4.3-5.9.3-4.6.2-9.4.2-14.2zm377.7-.1V8.6c0-3.4-2.1-5.8-5.4-6.4-1.7-.3-3.5-.3-5.2-.1-4.2.6-6.3 2.7-6.4 6.9-.1 9.2-.1 18.4 0 27.7 0 3.9 2.1 6.3 5.8 6.9 1.3.2 2.6.1 3.9.1 4.8-.1 7.2-2.4 7.2-7.2.1-4.6.1-9.1.1-13.7zm-88.3.1V9.1c0-3.9-2.1-6.5-5.5-7-1.9-.3-3.9-.3-5.8 0-2.6.4-4.5 1.8-5.2 4.4-.3 1-.4 2-.4 3.1v27c0 3.9 1.9 6.3 5.6 6.9 1.9.3 3.8.3 5.7 0 3.4-.5 4.9-2.2 5.5-5.5.1-.7.1-1.4.1-2.1v-13zm83.4 53.5v14.4c0 3.6 2.1 5.8 5.6 6.4 1.3.2 2.6.2 3.9.2 4.7 0 7.4-2.5 7.4-7.2.1-9.1.1-18.2 0-27.3 0-4.2-2.1-6.5-6-7.1-1.3-.2-2.6-.1-3.8-.1-4.7.1-7.2 2.6-7.2 7.2.1 4.4.1 8.9.1 13.5zm-6.9 0v-14c-.1-3.8-2-6-5.7-6.7-1.9-.3-3.7-.3-5.6 0-3.7.7-5.6 2.8-5.7 6.6-.1 2 0 4 0 6v21.8c0 3.7 1.8 6.2 5.1 6.9 1.8.4 3.6.4 5.4.2 3.6-.4 5.6-2 6.3-4.9.2-1 .3-2 .3-3.1-.1-4.2-.1-8.5-.1-12.8zm-378.8 9.8v4.2c.1 3.5 1.8 5.8 4.9 6.6 1.8.4 3.6.5 5.4.2 4.1-.6 5.6-2.1 6.1-6.3.4-2.9.2-5.7 0-8.6-.2-2.8-1.7-4.7-3.9-6.3-2-1.4-3.9-2.9-5.9-4.3-1.3-.9-1.8-2.1-1.8-3.7v-5c0-2.2.9-3.1 3-3.1 2.8-.1 3.8.7 3.9 3 .1 1.4 0 2.7 0 4.1 0 1.1-.5 2.7.2 3.3.8.7 2.3.1 3.5.2.7.1.9-.3.9-.9 0-2.6 0-5.2-.1-7.8-.1-3-1.9-5.2-4.7-5.9-1.9-.5-3.8-.5-5.7-.2-3.6.6-5.1 2.1-5.7 5.8-.3 2.1 0 4.2-.1 6.3-.2 3.5 1.2 6.1 4.1 8 2 1.4 3.9 2.8 5.8 4.2 1.1.8 1.8 1.9 1.8 3.2.1 2.3.1 4.6 0 6.9-.1 1.8-1 2.6-2.8 2.7h-1.2c-2-.1-2.9-.9-2.9-2.9v-7.8c0-1-.3-1.3-1.2-1.2-.8.1-1.7 0-2.5 0-.7 0-1 .2-1 1-.1 1.5-.1 2.9-.1 4.3zm308.5 0v4.1c.1 3.6 1.8 5.9 4.9 6.6 1.7.4 3.5.5 5.2.2 4.1-.6 5.8-2.2 6.2-6.3.3-2.8.2-5.7 0-8.5-.1-2.8-1.6-4.8-3.8-6.3-2.1-1.5-4.2-3-6.3-4.6-1-.7-1.5-1.7-1.5-2.9-.1-2-.1-4.1 0-6.1 0-1.6 1-2.5 2.6-2.6h1.2c2.2 0 3.1.9 3.2 3.1v4c0 3.7 0 3.7 3.8 3.5.6 0 .9-.2.8-.8 0-2.7.1-5.4-.1-8-.1-3-1.9-5.1-4.7-5.8-1.9-.5-3.9-.5-5.8-.1-3.5.6-5 2.3-5.6 5.8-.3 2.3-.1 4.5-.2 6.8 0 3 1.1 5.4 3.6 7.2 2 1.4 3.9 2.9 5.9 4.3 1.2.9 2.1 1.9 2.2 3.5 0 2.3.1 4.6 0 6.9-.1 1.7-1 2.6-2.7 2.7h-1.4c-1.9-.1-2.8-1-2.8-2.8v-5.5c0-3.8 0-3.7-3.8-3.6-.7 0-1 .3-.9 1 .1 1.5 0 2.9 0 4.2zm-183.1.1c.1 0 .1 0 0 0v4.3c.1 3.4 1.8 5.6 4.8 6.3 1.7.4 3.5.5 5.2.2 4.2-.6 5.7-2.2 6.3-6.4.3-2.7.2-5.4.1-8.1-.1-3-1.7-5.1-4-6.7-2-1.4-4-2.8-5.9-4.3-1-.7-1.7-1.7-1.7-3-.1-2.1 0-4.2 0-6.2 0-.8.3-1.5 1-2 1.4-.9 3-.8 4.5-.3 1.3.5 1.5 1.8 1.5 3v6.2c0 .9.3 1.1 1.1 1.1.9-.1 1.8 0 2.6 0 .7 0 .9-.2.9-.9V62c-.1-3.5-1.9-5.6-5.3-6.3-1.7-.4-3.5-.3-5.2 0-3.7.6-5.6 2.8-5.7 6.6-.1 2 0 4.1 0 6.1 0 3 1.2 5.4 3.7 7.1 2.1 1.5 4.1 3 6.2 4.5 1.2.8 1.8 1.9 1.8 3.3.1 2.2.1 4.5 0 6.7 0 1.7-.8 2.5-2.2 2.8-.9.2-1.8.2-2.7 0-1.1-.2-1.8-.9-2-2.1-.3-2.1-.1-4.1-.2-6.2 0-1.1.5-2.6-.2-3.2-.8-.8-2.3-.2-3.5-.3-.8-.1-1 .3-.9 1-.1 1.5-.2 2.9-.2 4.3zm-160.5.2v4.2c.1 3.7 2 5.9 5.7 6.5 1.7.3 3.4.3 5.1 0 3.1-.5 5-2.2 5.5-5.3.4-2.9.2-5.8.2-8.7 0-3.3-1.7-5.5-4.3-7.3l-5.4-3.9c-1.4-1-2-2.2-1.9-3.9.1-1.5 0-3 0-4.5 0-2.8.8-3.5 3.6-3.5h.6c1.6.1 2.3.7 2.6 2.2.3 1.6.1 3.2.1 4.8.1 1.1-.5 2.7.2 3.3.8.7 2.3.2 3.5.2h.1c.6.1.8-.2.8-.8 0-2.6.1-5.1-.1-7.7-.2-3.7-2-5.6-5.7-6.3-1.5-.3-3.1-.3-4.7 0-4 .6-5.9 2.9-5.9 7 0 1.8.1 3.6 0 5.4-.2 3.4 1.3 5.9 4 7.8 2 1.4 3.9 2.8 5.8 4.2 1 .7 1.6 1.6 1.7 2.9.2 2.5.2 4.9 0 7.4 0 .7-.1 1.4-.7 1.9-1.4 1.1-3.1 1-4.7.5-1.4-.4-1.6-1.7-1.7-2.9v-5.3c0-1.1.5-2.6-.2-3.2-.8-.8-2.3-.2-3.5-.3h-.1c-.6-.1-.8.2-.8.8.3 1.4.2 2.9.2 4.5zM678.2 2.2c-.6 0-1.2.1-1.8 0-1-.1-1.3.3-1.4 1.2-.2 1.7-.5 3.3-.7 5-1.1 7.1-2.2 14.2-3.3 21.2-.7 4.2-1.3 8.5-2 12.7-.1.8.1 1 .9 1 .9-.1 1.8 0 2.6 0 .7 0 1-.1 1.1-.9.2-1.6.5-3.1.6-4.7.1-.9.3-1.4 1.4-1.3 1.8.1 3.5 0 5.3 0 .7 0 1.1.1 1.2.9 0 .9.3 1.9.4 2.8.4 3.1.3 3.1 3.4 3.1h.4c1.1.2 1.4-.3 1.2-1.3l-1.5-9.6c-1.4-9-2.8-18.1-4.2-27.1-.6-3-.5-3-3.6-3zm-260.7 0h-2.3c-.7 0-.9.3-1 .9-.6 3.7-1.1 7.4-1.7 11.1-1.1 7-2.2 14.1-3.2 21.1-.4 2.3-.7 4.6-1.1 7-.1.6-.2 1.1.8 1.1 1-.1 2 0 3 0 .6 0 .7-.3.8-.8.2-1.7.5-3.5.7-5.2.1-.7.3-.9 1-.9h5.8c.6 0 .9.2 1 .9.2 1.7.5 3.4.7 5.1.1.7.3 1 1 1 1 0 1.9-.1 2.9 0 .8 0 1-.3.8-1-.8-5.3-1.6-10.5-2.4-15.8-1.1-7.1-2.2-14.2-3.3-21.4-.6-3.1-.5-3.1-3.5-3.1zm186.4 53.6h-2.2c-.6 0-.9.2-1 .8-.2 1.8-.6 3.6-.9 5.4-1 6.5-2 13.1-3 19.6-.7 4.8-1.5 9.5-2.2 14.3-.1.7 0 1 .8.9h2.9c.6 0 .9-.1.9-.8.2-1.6.5-3.1.6-4.7.1-.9.3-1.4 1.4-1.3 1 .1 2 0 3 0 1.1 0 2.4-.4 3.1.2.7.6.4 2 .7 3.1.3 1.1-.1 2.6.7 3.3.8.7 2.2.1 3.4.2.9.1 1.1-.3 1-1.1-.3-1.6-.5-3.3-.8-5-1.7-10.7-3.3-21.3-5-32-.5-2.9-.4-2.9-3.4-2.9zM417.2 90.1h3c.5 0 .8.1.9.7.1 1.2.3 2.4.5 3.5.3 2.5.3 2.5 2.9 2.5h1.3c.6 0 .9-.2.8-.8-.6-3.8-1.2-7.6-1.8-11.3-.9-6-1.9-12-2.8-18.1-.5-3.3-1-6.5-1.5-9.8-.1-.8-.4-1.1-1.2-1-1.3.1-2.6.1-3.8 0-.9-.1-1.2.3-1.4 1.2-.7 4.9-1.4 9.8-2.2 14.6-1.2 8-2.5 16-3.7 24-.1.8 0 1.4 1 1.3.8-.1 1.6-.1 2.4 0 .7 0 1.1-.1 1.1-1 .1-1.2.3-2.4.5-3.7.3-2.1.3-2.1 2.5-2.1h1.5zM805 96.8h1.3c1 .1 1.1-.3 1-1.2-.3-1.5-.5-3.1-.7-4.6-1.2-7.6-2.4-15.2-3.5-22.8-.6-3.8-1.2-7.6-1.7-11.5-.1-.7-.4-1.1-1.2-1-1.3.1-2.6.1-4 0-.8 0-1.1.2-1.2 1-.3 2.1-.6 4.1-.9 6.1-1.7 10.8-3.3 21.6-5 32.5-.2 1.3-.2 1.4 1.2 1.4h2.4c.6 0 .8-.2.9-.8.2-1.7.5-3.4.7-5.1.1-.7.3-.9 1-.9h5.9c.6 0 .8.2.9.8.1 1.3.3 2.5.5 3.8.2 2.3.2 2.3 2.4 2.3zm87.5-94.6h-2.2c-.7 0-1 .2-1.1.9-.5 3.2-1 6.3-1.4 9.4l-4.5 29.4c-.2 1.3-.2 1.4 1.2 1.4h2.4c.6 0 .8-.2.9-.8.2-1.7.5-3.5.7-5.2.1-.7.3-.9 1-.9h5.8c.6 0 .9.2 1 .9.2 1.7.5 3.3.7 5 .1.8.3 1.2 1.2 1.1.9-.1 1.8-.1 2.6 0s1.1-.2.9-1c-.7-4.8-1.5-9.5-2.2-14.3-1.2-7.6-2.4-15.3-3.5-22.9-.5-3-.5-3-3.5-3zM465.6 55.8h-2.4c-.5 0-.7.1-.8.7-.1 1.1-.3 2.1-.5 3.2-1 6.5-2 13.1-3 19.6-.9 5.6-1.7 11.1-2.6 16.6-.1.8.1 1 .8.9.9 0 1.8-.1 2.6 0 .9.1 1.1-.3 1.2-1.1.2-1.6.5-3.2.6-4.9.1-.7.4-.8 1-.8h5.8c.6 0 .9.2 1 .9.2 1.7.5 3.3.7 5 .1.7.3 1 1 .9 1-.1 1.9 0 2.9 0 .7 0 1-.2.8-1-.8-4.8-1.5-9.6-2.3-14.4-1.2-7.6-2.3-15.1-3.4-22.7-.4-2.9-.5-2.9-3.4-2.9zm267.9 41h.5c2 0 2 0 1.7-2L733 77.4c-1.1-6.9-2.1-13.9-3.2-20.8-.1-.7-.4-.9-1.1-.9-1.4.1-2.8.1-4.2 0-.8 0-1 .3-1.1.9-.2 1.1-.3 2.2-.5 3.3-1.8 11.9-3.7 23.8-5.5 35.8-.1.8.1 1.1.9 1 .8-.1 1.7 0 2.5 0 .7 0 1.1-.1 1.2-.9.1-1.6.4-3.2.7-4.9.1-.6.2-1 1-1h5.9c.5 0 .8.2.8.7l.6 3.9c.4 2.3.4 2.3 2.5 2.3zm127.6-73.9v14.3c.1 3.4 1.9 5.6 5.3 6.3 1.9.4 3.9.4 5.8 0 3.4-.6 5-2.4 5.5-5.7.3-2.2.1-4.5.2-6.7 0-1.1.5-2.6-.2-3.3-.7-.7-2.1-.1-3.2-.2-.9-.1-1.2.2-1.2 1.2.1 2.6 0 5.3 0 7.9 0 1.8-.9 2.6-2.7 2.7h-1.1c-2.8 0-3.5-.7-3.5-3.4V10.7c0-3.8.5-4.3 4.3-4.2 2 .1 2.9.9 3 3v4.1c0 1.1-.5 2.6.3 3.3.8.7 2.2.1 3.4.2h.1c.6.1.8-.2.8-.8 0-2.6 0-5.3-.1-7.9-.1-3.1-2-5.3-4.9-6-1.5-.3-3.1-.4-4.7-.3-4.8.4-7 2.7-7 7.5-.1 4.4-.1 8.8-.1 13.3zm-369-.1v13.9c0 3.5 1.7 5.9 4.7 6.6 2.2.5 4.4.5 6.5.1 3.6-.6 5.4-2.9 5.5-6.5v-6c0-1.1.5-2.5-.2-3.2-.7-.6-2.1-.1-3.1-.2s-1.3.3-1.2 1.3c.1 2.5 0 4.9 0 7.4 0 2.1-.9 3-3 3.1h-1.2c-2.4 0-3.2-.9-3.2-3.3V10.7c0-4 .6-4.6 4.6-4.3 1.7.1 2.5 1 2.6 2.7v4.3c0 3.8 0 3.7 3.8 3.6.7 0 1-.3 1-1 0-2.3.1-4.6 0-6.9-.1-3.8-1.7-5.9-4.8-6.7-2.4-.6-4.9-.5-7.3.1-2.3.6-3.7 2.2-4.2 4.5-.2.8-.3 1.7-.3 2.6-.1 4.3-.2 8.8-.2 13.2zm252 0V42c0 1.1.2 1.5 1.4 1.4 2.8-.1 5.6 0 8.4 0 1.1 0 2.5.5 3.1-.2.7-.7.1-2.1.3-3.2.1-.9-.2-1.1-1.1-1.1-2.1.1-4.2 0-6.4 0-.6 0-1-.1-1-.8V25.5c0-.7.3-.9.9-.9h3.7c3.4 0 3.3 0 3.3-3.4 0-.8-.2-1-1-1h-6c-.6 0-.9-.1-.9-.9V7.6c0-.7.3-.9.9-.9h4.2c3.3 0 3.3 0 3.2-3.4 0-.8-.3-1-1-1-3.6 0-7.1.1-10.7 0-1.1 0-1.4.2-1.4 1.4.1 6.4.1 12.7.1 19.1zm-93.3.1v19.4c0 .5-.2 1.1.7 1.1h11.7c.5 0 .7-.2.7-.7 0-.9-.1-1.8 0-2.8.1-.8-.2-1-1-1h-6.4c-.7 0-1-.2-1-.9V25.5c0-.7.2-.9.9-.9h3.6c3.5 0 3.5 0 3.4-3.5 0-.8-.3-.9-1-.9h-5.9c-.7 0-1.1-.1-1.1-1V7.7c0-.8.3-1 1.1-1h3.8c3.3 0 3.3 0 3.3-3.3 0-.8-.2-1.1-1.1-1.1-3.5 0-7 .1-10.6 0-1 0-1.4.2-1.3 1.3.2 6.5.2 12.9.2 19.3zM503.2 75.3c-.1 0-.2 0-.2-.1-1.2-6-2.5-12.1-3.7-18.1-.2-.9-.5-1.3-1.5-1.2-.8.1-1.6.1-2.4 0-1-.1-1.2.3-1 1.2 1.6 6.5 3.3 13.1 4.8 19.6.6 2.5 1.6 5 1.6 7.7v11.4c0 .7.2 1.1 1 1 .9-.1 1.8-.1 2.8 0 .9.1 1.1-.3 1.1-1.1V84.8c0-1.7.2-3.4.6-5.1l5.7-22.8c.2-.8.1-1.1-.8-1.1h-2.9c-.6 0-.9.2-1 .9-.9 4.1-1.8 8.3-2.6 12.4-.6 2.1-1 4.1-1.5 6.2zm71.5 75.6c1.6-.8 2-2.1 2.1-3.6.1-1.6 0-3.3 0-4.9-.1-2.9-1.7-4.5-4.6-4.6-2.1-.1-4.2 0-6.2 0-.6 0-.9.1-.9.9V164c0 .6.1.9.8.9 2.2 0 4.3.1 6.5 0 3.1-.1 4.5-1.7 4.5-4.9v-5.2c0-1.7-.4-3.1-2.2-3.9zm-135 1.1c1.7-.9 2.2-2.2 2.2-3.8.1-1.9.1-3.8 0-5.7-.1-3.1-1.7-4.7-4.8-4.7h-5.8c-1 0-1.3.2-1.3 1.2v22.7c0 3.1 0 3 3.1 3 .9 0 1.2-.2 1.1-1.1-.1-2.9 0-5.7 0-8.6 0-.4-.2-.8.3-1 1.7-.7 3.1.3 3.2 2.1v7.5c0 .8.2 1.2 1.1 1.1.7-.1 1.4-.1 2.2 0 .8.1 1-.2 1-1-.1-2.8 0-5.5 0-8.3 0-1.5-.5-2.7-2.3-3.4zm458.4-73.4v14.8c0 1.1-.5 2.5.2 3.2.7.7 2.1.1 3.2.2 1 .1 1.3-.2 1.3-1.2-.1-4.8 0-9.6 0-14.4V61.6c0-1 .3-1.3 1.3-1.3 1.3.1 2.6 0 3.8 0 .7 0 1-.2 1-.9-.1-.9-.1-1.8 0-2.6s-.3-.9-1-.9h-15.1c-.7 0-1 .2-1 .9.1.9.1 1.8 0 2.6s.3.9 1 .9c1.4 0 2.7.1 4.1 0 1-.1 1.2.3 1.2 1.2-.1 5.7 0 11.4 0 17.1zm-188.8 0V63.3c0-2.9 0-2.9 2.9-2.9 1.1 0 2.4.5 3.1-.2.7-.7.1-2.1.2-3.1.1-.9-.3-1.1-1.2-1.1h-12.5c-3.5 0-3.5 0-3.4 3.5 0 .8.3 1 1.1 1 1.2 0 2.4.1 3.6 0 1.1-.1 1.5.2 1.5 1.4v34.4c0 .5.2.7.7.7h2.4c1.8 0 1.6.2 1.6-1.6V78.6zM753 152c1.5-.8 2.1-2 2.1-3.5.1-2.2.1-4.3 0-6.5-.2-2.9-1.8-4.2-4.7-4.3h-6c-.9 0-1.1.3-1.1 1.1v22.9c0 3 0 3 3.1 3 .9 0 1.2-.2 1.2-1.1-.1-2.9 0-5.7 0-8.6 0-.3-.1-.7.2-1 1.3-.8 3.2.3 3.2 1.7v5.9c0 3.2 0 3.2 3.3 3.1.7 0 1-.2 1-.9v-8.3c0-1.5-.4-2.8-2.3-3.5zm-222.7-.7v12.3c0 .9.3 1.2 1.1 1.1 1.8-.1 3.6 0 5.4 0 3.7-.1 5.6-1.9 5.7-5.5.1-5.3.1-10.7 0-16 0-3.6-2-5.4-5.6-5.5h-5.6c-.8 0-1 .2-1 1v12.6zM700.4 25.2V9.8c0-3 0-3 3-3 3.3 0 3.2 0 3.2-3.2 0-.9-.3-1.1-1.2-1.1h-12.7c-3.5 0-3.5 0-3.3 3.5 0 .7.3.9.9.9 1.4 0 2.7.1 4.1 0 1-.1 1.2.3 1.2 1.2v34.3c0 1 .3 1.3 1.2 1.2.8-.1 1.6-.1 2.4 0 .9.1 1.2-.2 1.2-1.2-.1-5.9 0-11.6 0-17.2zm214.2-.1V7.9c0-.9.3-1.2 1.2-1.1 1.3.1 2.6 0 4 0 .7 0 1-.2 1-.9-.1-.8 0-1.7 0-2.5 0-.6-.1-.9-.8-.9h-15.3c-.6 0-.9.1-.9.8v2.8c0 .6.2.8.8.8 1.3 0 2.6.1 4 0 1.2-.1 1.5.3 1.5 1.4v34c0 .9.2 1.3 1.2 1.2.8-.1 1.7-.1 2.5 0 .9.1 1.1-.3 1.1-1.2-.3-5.8-.3-11.5-.3-17.2zm-116.8 0V9.6c0-2.8 0-2.8 2.9-2.8 3.5 0 3.5 0 3.3-3.5 0-.6-.2-.8-.8-.8h-15.4c-.6 0-.9.1-.8.8 0 .9.1 1.8 0 2.6s.3 1 1 .9c1.2 0 2.5.1 3.7 0 1.1-.1 1.4.3 1.4 1.4v33.9c0 1 .2 1.5 1.3 1.4.7-.1 1.5-.1 2.3 0 .9.1 1.2-.2 1.2-1.2-.1-5.8-.1-11.5-.1-17.2zm-182.1 0V9.6c0-2.8 0-2.8 2.9-2.8 3.5 0 3.5 0 3.3-3.5 0-.6-.2-.8-.8-.8h-15.4c-.6 0-.9.1-.8.8 0 .9.1 1.8 0 2.6s.3 1 1 .9c1.2 0 2.5.1 3.7 0 1.1-.1 1.4.3 1.4 1.4v33.9c0 1 .2 1.5 1.3 1.4.7-.1 1.5-.1 2.3 0 .9.1 1.2-.2 1.2-1.2-.1-5.8-.1-11.5-.1-17.2zm-96 0v15c0 1-.4 2.4.2 3 .7.7 2.1.1 3.1.3 1.3.2 1.5-.4 1.5-1.5V9.7c0-2.9 0-2.8 2.9-2.9 1 0 2.4.5 3-.2.6-.7.1-2 .2-3 .1-.9-.2-1.1-1.1-1.1h-12.7c-3.3 0-3.3 0-3.2 3.3 0 .8.2 1.1 1 1 1.3-.1 2.6 0 4 0 1-.1 1.3.3 1.3 1.3-.2 5.6-.2 11.3-.2 17zm121.9 126.2v10.3c0 3.2 0 3.2 3.3 3.2.8 0 1-.3 1-1v-7.9c0-3 0-3 3-2.9.7 0 .9.2.9.9v7.8c0 3.4 0 3.3 3.3 3.2.7 0 .9-.2.9-.9v-25.3c0-.6-.2-.9-.8-.8-.8 0-1.7.1-2.5 0s-.9.2-.9.9v7.5c0 2.9 0 2.9-3 2.8-.8 0-.9-.3-.9-1v-7.3c0-1 .5-2.3-.2-2.8-.6-.5-1.9-.1-2.9-.2-.9-.1-1.2.2-1.1 1.1 0 4.1-.1 8.3-.1 12.4zm154.6.7c1.8-1 2.1-2.5 2.1-4.2v-5.4c-.1-3-1.7-4.5-4.7-4.6-1.9 0-3.8.1-5.8 0-1.1 0-1.4.2-1.4 1.3.1 7.5 0 15.1 0 22.6 0 3.1 0 3 3 3.1.9 0 1.2-.2 1.2-1.1-.1-2.9 0-5.7 0-8.6 0-.4-.2-.8.3-1 1.7-.7 3.2.3 3.2 2.1v5.6c0 3.1 0 3.1 3.1 3.1.8 0 1-.2 1-1 0-2.7-.1-5.3 0-8 .2-1.8-.2-3.1-2-3.9zm23-129.2v19.4c0 .9.2 1.2 1.2 1.2 3.4-.1 6.8-.1 10.2 0 1 0 1.3-.3 1.2-1.3-.1-.7-.1-1.4 0-2 .1-.9-.2-1.2-1.1-1.2-1.8.1-3.6-.1-5.4 0-1.1.1-1.3-.3-1.3-1.3V13.8c0-3.3-.1-6.6 0-9.9 0-1.2-.4-1.5-1.5-1.4-.7.1-1.4.1-2.2 0-1-.1-1.2.3-1.2 1.2.1 6.3.1 12.7.1 19.1zM480.7 76.3v19.3c0 1 .3 1.3 1.3 1.3 2.7-.1 5.4 0 8 0 3.4 0 3.4 0 3.3-3.4 0-.8-.3-1-1.1-1H487c-1.8 0-1.6.2-1.6-1.6V59.3c0-1.1.5-2.5-.2-3.2-.7-.7-2.1-.1-3.2-.2-1-.1-1.3.3-1.3 1.3v19.1zm480.9.2v19.2c0 1 .3 1.3 1.3 1.3 2.6-.1 5.3 0 7.9 0 3.4 0 3.4 0 3.3-3.4 0-.8-.3-1-1-1-1.8 0-3.6-.1-5.4 0-1.1.1-1.3-.3-1.3-1.3V59.6c0-1.1.5-2.6-.3-3.3-.7-.7-2.1-.1-3.2-.2-1-.1-1.3.3-1.3 1.3.1 6.2 0 12.6 0 19.1zm-287.3 88.3h1c1.1.2 1.3-.3 1.1-1.3-1.2-8.3-2.4-16.7-3.6-25-.1-.5-.3-.7-.8-.7-1.3 0-2.6.1-3.8 0-.8-.1-1.1.3-1.2 1-1.1 8.2-2.3 16.3-3.5 24.5-.2 1.4-.2 1.4 1.3 1.4 2.4 0 2.4 0 2.7-2.3.3-1.9.3-1.9 2.2-1.9 2.3 0 2.2 0 2.6 2.3.2 2.4-.4 1.9 2 2zm-197.5-27h-1.9c-.7-.1-.9.2-1 .9l-3.3 23.4c-.4 2.7-.4 2.7 2.4 2.7 1 0 1.2-.4 1.3-1.2.1-1-.2-2.3.5-2.8.7-.6 2-.1 3-.2.8-.1 1.1.2 1.2 1 .3 3.3.4 3.3 3.7 3.2h.1c.6.1.7-.2.7-.8-1.2-7.8-2.3-15.7-3.4-23.5-.5-2.7-.6-2.7-3.3-2.7zm288.5 13.4v10.4c0 3.3 0 3.3 3.3 3.2.8 0 .9-.3.9-1v-6c0-.9-.4-2 .2-2.6.5-.5 1.7-.1 2.5-.2 2.7-.1 4.2-1.4 4.5-4.1.3-2.9.2-5.8 0-8.7-.2-3.1-1.8-4.4-5-4.4h-5.4c-.9 0-1.2.2-1.1 1.1.1 4.1.1 8.2.1 12.3zM480.4 22.9v19.4c0 .8.2 1.2 1.1 1.1.8-.1 1.5-.1 2.3 0 1.1.1 1.5-.2 1.5-1.4V6c0-1.1.5-2.5-.2-3.2-.7-.8-2.2-.1-3.3-.3-1.1-.2-1.3.4-1.3 1.3-.1 6.3-.1 12.7-.1 19.1zm55.7 0v19.4c0 .8.2 1.1 1.1 1.1.8-.1 1.6-.1 2.4 0 1 .1 1.3-.2 1.3-1.3V5.9c0-1.1.4-2.6-.2-3.2-.7-.8-2.2-.1-3.3-.3-1.1-.2-1.3.4-1.3 1.4v19.1zm8.8 53.6V59.3c0-1.1.5-2.4-.2-3.1-.7-.6-2.1-.1-3.1-.2-1.1-.1-1.4.3-1.4 1.4v36c0 1.1-.5 2.5.2 3.2.7.8 2.2.1 3.3.3 1 .1 1.3-.2 1.3-1.2-.1-6.5-.1-12.9-.1-19.2zm179.3 74.7v12.2c0 1.2.4 1.4 1.4 1.4 1.7-.1 3.4 0 5.2 0 2.8 0 2.8 0 2.8-2.8 0-.7-.2-1-.9-1-1.1.1-2.2 0-3.4 0-.6 0-.8-.2-.8-.8v-5.4c0-1.9 0-1.9 1.9-1.9 3 0 3 0 2.9-3 0-.6-.2-.9-.8-.8h-3c-.8 0-1.1-.2-1-1 .1-1.4 0-2.9 0-4.3 0-2.2 0-2.2 2.3-2.2 2.9 0 2.8 0 2.8-2.9 0-.8-.3-.9-1-.9-2.4 0-4.8.1-7.2 0-.9 0-1.2.2-1.1 1.1 0 4.1-.1 8.2-.1 12.3zm-272.2 0v12.6c0 .5-.1 1 .8 1h7.8c.3 0 .7 0 .7-.3.1-1.1.1-2.1 0-3.2 0-.4-.5-.3-.8-.3H457c-.6 0-.8-.2-.8-.8v-5.3c0-2 0-2 2-2 3 0 3 0 2.8-3v-.1c.1-.6-.2-.8-.8-.8-1 0-2-.1-3 0-.9.1-1.1-.3-1.1-1.1.1-1.4 0-2.8 0-4.2 0-2.2 0-2.2 2.2-2.2 3 0 2.9 0 2.9-2.9 0-.7-.2-.9-.9-.9-2.4 0-4.8.1-7.2 0-.9 0-1.1.2-1.1 1.1v12.4zm133.5-13.4c.5 1.8.9 3.5 1.3 5.2 1.8 6.8 3.9 13.6 3.1 20.8v.2c-.1.6.3.8.8.7h2.6c.6 0 .8-.2.8-.8v-4.5c.1-1.9-.2-3.8.4-5.7 1.3-4.9 2.5-9.9 3.8-14.8.2-.8.2-1.1-.8-1.1-3 0-3 0-3.6 2.9v.2c-.6 2.6-1.1 5.1-1.7 7.7-.8-3.3-1.5-6.6-2.1-9.9-.1-.4 0-1-.7-1-1.4.1-2.6.1-3.9.1zm-74.2 13.5v12.5c0 .8.2 1.1 1.1 1.1 1.8-.1 3.5 0 5.3 0 3 0 3 0 2.9-3 0-.6-.2-.8-.8-.8h-3.4c-.6 0-.9-.1-.9-.8v-6.5c0-.7.2-.8.8-.8 1.1 0 2.2.1 3.2 0 1.6-.3.5-1.6.7-2.4.1-.5.5-1.5-.7-1.4h-3.2c-.6 0-.8-.2-.8-.8v-4.5c0-2.2 0-2.2 2.2-2.2 2.9 0 2.8 0 2.9-2.9 0-.8-.3-1-1-1-2.3 0-4.6.1-6.8 0-1 0-1.4.2-1.3 1.3-.2 4-.2 8.1-.2 12.2zm341.5-.1v10.5c0 3.1 0 3 3 3.1 1 0 1.2-.3 1.2-1.2v-9.5c0-.8.2-1.1 1-1 1 .1 2 0 3 0 .3 0 .7 0 .7-.5 0-1.1.2-2.3-.2-3.2-.3-.6-1.5-.1-2.4-.2h-1c-.9.1-1.2-.2-1.2-1.1.1-1.5 0-3 0-4.5 0-2.1 0-2.1 2.1-2.1 2.8 0 2.8 0 2.8-2.8 0-.8-.2-1-1-1-2.3.1-4.6.1-6.8 0-1 0-1.3.2-1.3 1.2.1 4.2.1 8.2.1 12.3zm-358.7 2v8.5c0 3 0 3 3 3.1 1 0 1.2-.3 1.2-1.3v-20.8c0-.7 0-1.1 1-1.1 2.7 0 2.7 0 2.7-2.8v-.1c.1-.8-.2-.9-.9-.9-3.2 0-6.3.1-9.5 0-1 0-1.2.3-1.2 1.2 0 2.6 0 2.6 2.6 2.6.9 0 1.1.3 1.1 1.2-.1 3.4 0 6.9 0 10.4zm213-.1v8.9c0 2.8 0 2.8 2.9 2.8 1.1 0 1.4-.3 1.4-1.4v-20.7c0-.8.1-1.1 1-1.1 2.8 0 2.7 0 2.7-2.8 0-.7-.1-1-.9-1h-9.7c-.8 0-1 .3-1 1 0 2.7 0 2.8 2.7 2.8.8 0 1 .2 1 1-.1 3.5-.1 7-.1 10.5zm-15.8 0v-10.5c0-.8.2-1 1-1 2.9 0 2.8 0 2.8-2.9 0-.8-.3-.9-1-.9-3.2 0-6.3.1-9.5 0-1 0-1.3.3-1.2 1.3.1 2.5 0 2.6 2.6 2.5 1 0 1.2.3 1.2 1.3v18.9c0 3.1 0 3.1 3.1 3.1.8 0 1-.2 1-1v-10.8zM383 157.3h.1v6.7c0 .5-.1 1 .7.9.7 0 .5-.6.5-.9v-9.2c0-.4.2-1-.6-1-.6 0-1.2-.1-1.4.9-.4 2.4-1 4.8-1.5 7.3-.3-.2-.3-.4-.4-.6-.4-2.2-.9-4.5-1.2-6.7-.2-1-.8-.7-1.4-.8-.8-.1-.6.5-.7 1v9.2c0 .4-.1.9.6.9.8 0 .7-.5.7-1v-6.7c.5 2.2 1 4.4 1.4 6.6.1.4 0 1.1.8 1.1s.8-.6.9-1c.6-2.3 1-4.5 1.5-6.7zm196.4-64.2v-2c.1-.7-.2-1-1-1-1 .1-1.9 0-2.9 0-.7 0-.9.2-.9.9v5c0 .6.1.9.8.9.8-.1.8.4.6.9-.3 1-.7 2-1.1 2.9-.1.3-.4.5-.1.8.6.5 1.7.3 2.2-.3 2-2.4 2.6-5.1 2.4-8.1z"/><path class="st1" d="M977.3 41.5c-.2 2.3-1 4.3-2.3 6.1-.5.7-1.5.9-2.2.4-.4-.3-.1-.5 0-.7.4-1 .8-1.9 1.1-2.9.2-.6.2-1-.6-1-.6.1-.7-.3-.7-.8v-5.3c0-.6.2-.8.8-.8h3.9v5z"/><path class="st2" d="M372.9 165.1v-9.2c0-.7-.3-.9-.9-.9-.5 0-1 .1-1-.6 0-.8.6-.6 1-.6h3.5c.5 0 .7.1.7.6 0 .6-.3.7-.8.6-1-.1-1.2.3-1.2 1.2v8.8c-.4.1-.8.1-1.3.1z"/><path class="st1" d="M341.7 164.9v.2h-14.6v-.2h14.6zM839 164.9v.2h-4.8v-.2h4.8zM411.7 165.1s0-.1.1-.1v-.1h4.5v.2h-4.6zM816.7 164.9v.2h-4.6c.1-.1.1-.1 0-.2h4.6zM627.9 164.9v.2h-4.1c.1-.1.1-.1 0-.2h4.1z"/><path class="st2" d="M341.7 164.9h-14.6c-4.8-.1-9.5-.8-13.9-2.8-7.6-3.4-11.6-9.6-13.2-17.5-.6-3-.9-6-.9-9v-33.2c0-1.2.3-1.4 1.5-1.4 7.2.1 14.3 0 21.5 0 1 0 1.2.3 1.2 1.3v32.3c0 1.1.1 2.2.4 3.3.7 2.8 2.5 4.5 5.3 5.1 3.3.8 6.6.7 9.9.2 4.1-.7 6.4-3.4 6.4-7.8.1-8.2.1-16.5 0-24.7 0-4.7-2.4-8.3-6.1-11.1-8-5.9-16-11.7-24-17.5-2.9-2.1-5.9-4.3-8.4-6.9-5.1-5.4-7.3-11.9-7.5-19.1-.3-8.8-.1-17.6-.1-26.5 0-4.4.6-8.7 2.1-12.8 3-8.3 9.1-13 17.6-15 3.1-.7 6.2-1 9.4-1 4.8 0 9.6-.1 14.4.1 4.5.1 8.9 1 13 2.9 7.5 3.5 11.4 9.7 13 17.6.6 3.1.8 6.3.9 9.5v27.6c0 1.3-.4 1.5-1.5 1.5-7.2-.1-14.4-.1-21.6 0-1.1 0-1.3-.3-1.3-1.3V31.3c0-.9-.1-1.8-.3-2.7-.7-3.4-2.8-5.4-6.2-5.9-2.8-.4-5.6-.5-8.4 0-4.1.7-6.4 3.3-6.5 7.6-.1 7.1-.1 14.1 0 21.2.1 4.7 2.5 8.2 6.3 10.9 8.9 6.4 17.8 12.9 26.6 19.4 4.6 3.4 8.6 7.3 10.9 12.7 1.6 3.8 2.3 7.8 2.3 11.9 0 10.8.1 21.6-.1 32.3-.1 4.9-1.2 9.7-3.6 14.1-3.7 6.7-9.6 10.1-16.9 11.6-2.6.2-5.1.5-7.6.5zM40.1 1.8h15.1c.9 0 1.2.2 1.4 1.1l2.7 18.9c1.2 8.1 2.3 16.2 3.5 24.3 1.2 8.6 2.5 17.2 3.7 25.8 1.2 8 2.3 16 3.5 24 1.1 7.5 2.2 14.9 3.2 22.4 1.2 8 2.3 16.1 3.5 24.1l3 20.4c.1.6-.1.8-.7.8H56.1c-.7 0-.9-.3-1-.9-.6-5.2-1.3-10.4-2-15.7-.3-2.7-.7-5.4-1-8.1-.1-.6-.3-.8-.9-.8h-24c-.7 0-.9.3-.9.9-.6 5-1.1 9.9-1.7 14.9-.3 2.9-.7 5.8-1 8.7-.1.7-.4 1-1.1 1H1.6c-.9 0-1.1-.3-1-1.1 1.1-7.5 2.2-14.9 3.2-22.4 1.1-7.6 2.2-15.2 3.2-22.7 1.2-8.1 2.3-16.2 3.5-24.3 1.2-8.2 2.3-16.3 3.5-24.5 1.2-8.7 2.5-17.4 3.7-26 1.2-8.1 2.3-16.2 3.5-24.3.7-5.2 1.5-10.4 2.2-15.6.1-.8.5-1 1.3-1 5.1.1 10.2.1 15.4.1zm-1 33.9h-.2c-.7 5.6-1.4 11.2-2 16.8-.9 7.7-1.9 15.4-2.8 23-.9 7-1.7 13.9-2.6 20.9-.8 6.2-1.5 12.3-2.3 18.5-.1 1 .1 1.3 1.2 1.3 5.6-.1 11.2 0 16.8 0 2 0 1.9 0 1.7-2-.8-6.2-1.6-12.3-2.3-18.5-.9-7.4-1.8-14.7-2.7-22.1-1-7.4-1.9-14.9-2.9-22.4-.6-5.2-1.2-10.4-1.9-15.5zM278.6 163.6h-11.3c-.8 0-1.1-.2-1.1-1-1-7.8-2-15.5-2.9-23.3-.1-.9-.3-1.2-1.3-1.2h-23.4c-.9 0-1.1.3-1.2 1.1-.9 7.7-1.8 15.4-2.7 23.2-.1.8-.3 1.1-1.2 1.1h-20.8c-.9 0-1.1-.2-1-1.1 1.1-7.5 2.2-15 3.2-22.5 1.1-7.5 2.2-15.1 3.2-22.6 1.2-8.2 2.3-16.3 3.5-24.5 1.2-8.6 2.5-17.2 3.7-25.8 1.2-8.7 2.5-17.4 3.7-26.2 1.2-8.1 2.3-16.2 3.5-24.3.7-4.7 1.3-9.3 2-14 .1-.6.3-.9 1.1-.9h31.1c.7 0 .9.3 1 .9.8 5.9 1.7 11.8 2.5 17.6 1.2 8.6 2.5 17.2 3.7 25.8 1.2 8 2.3 16 3.5 24 1.2 8.6 2.5 17.1 3.7 25.7 1.2 8.1 2.3 16.2 3.5 24.3 1.2 8.5 2.5 17 3.7 25.6.8 5.7 1.6 11.4 2.5 17 .1.9-.3.9-.9.9-3.8.2-7.6.2-11.3.2zm-28.4-128h-.1l-.3 2.1c-.9 7-1.7 14-2.6 21-.8 6.9-1.7 13.8-2.5 20.8-.8 6.2-1.5 12.4-2.3 18.6l-2.1 17.1c-.1.8.1 1 .9 1h18c.9 0 1-.3.9-1-.2-1-.3-2.1-.4-3.1-.9-7.4-1.9-14.9-2.8-22.3-.8-6.7-1.7-13.4-2.5-20.1-.9-7.4-1.9-14.9-2.8-22.3-.4-3.9-.9-7.8-1.4-11.8zM122.4 94v68.2c0 1.2-.3 1.5-1.5 1.5-7.3-.1-14.6-.1-21.8 0-1.3 0-1.5-.4-1.5-1.5V26.1c0-1.6 0-1.6-1.6-1.6H76.4c-.9 0-1.1-.2-1.1-1.1V3.3c0-.9.2-1.2 1.2-1.2h66.8c1 0 1.3.3 1.2 1.3v20c0 .9-.2 1.2-1.2 1.2h-19.8c-1.1 0-1.3.3-1.3 1.3.2 22.6.2 45.4.2 68.1zM154.1 81.1V1.8c0-1.2.3-1.5 1.5-1.5 7.3.1 14.6.1 21.9 0 1.2 0 1.4.3 1.4 1.5v136c0 1.9-.2 1.6 1.7 1.6h24.3c1 0 1.3.3 1.3 1.3v20c0 1-.3 1.2-1.3 1.2h-49.5c-1.1 0-1.3-.3-1.3-1.3V81.1z"/><path class="st1" d="M724.7 33.6c.4-2.3.7-4.6 1.1-6.9 1.1-6.7 2.2-13.4 3.3-20 .2-1.1.4-2.2.5-3.3.1-.7.3-.9 1-.9 1.8 0 3.6.1 5.4 0 .9 0 1.1.3 1.1 1.1v38.7c0 1-.3 1.3-1.2 1.2-1.1-.1-2.5.5-3.2-.2-.8-.7-.3-2.1-.3-3.2V13.4c0-.4.1-.8-.2-1.4-.6 3.6-1.2 7-1.8 10.4l-3 18.3c-.5 3-.6 2.9-3.5 2.9-1.9 0-1.8 0-2.1-1.8-1.5-9-3-17.9-4.5-26.9-.2-1.3-.4-2.6-.6-4-.3.5-.2 1-.2 1.4v29.9c0 1.1-.3 1.4-1.3 1.3-1-.1-2.3.4-3-.2-.7-.7-.2-2-.2-3V3.9c0-1 .2-1.4 1.3-1.3 1.7.1 3.4.1 5 0 .9 0 1.2.2 1.4 1.1 1.4 8.7 2.8 17.3 4.2 25.9.2 1.4.4 2.8.6 4.1 0-.1.1-.1.2-.1zM746.4 66.1v29.5c0 1.1-.3 1.4-1.3 1.3-1-.1-2.3.4-3-.2-.7-.7-.2-2-.2-3V57.3c0-1 .2-1.4 1.3-1.3 1.3.1 2.6.1 4 0 .9 0 1.3.2 1.5 1.2 1.9 8.6 3.9 17.2 5.9 25.9.1.4.2.8.5 1.2v-1.2-25.6c0-1 .2-1.4 1.3-1.4 3.2 0 3.2 0 3.2 3.2v36.4c0 1-.2 1.4-1.3 1.3-1.2-.1-2.4-.1-3.6 0-1 .1-1.2-.4-1.4-1.2-1.8-7.7-3.5-15.4-5.3-23.1-.5-2.2-1-4.3-1.5-6.5.1-.1 0-.1-.1-.1zM437.1 66.4v29.1c0 1.1-.3 1.4-1.4 1.4-3.2-.1-3.2 0-3.2-3.2V57.3c0-1.1.3-1.5 1.4-1.4 1.3.1 2.6.1 4 0 .9-.1 1.2.3 1.4 1.1 1.3 5.9 2.7 11.9 4.1 17.8.7 3.2 1.5 6.5 2.4 9.7v-1.9-25.5c0-1 .2-1.3 1.2-1.3 3.3 0 3.3 0 3.3 3.3v36.3c0 1.1-.3 1.5-1.4 1.4-1.1-.1-2.2-.1-3.4 0-.9.1-1.3-.2-1.5-1.2-1.7-7.6-3.5-15.2-5.2-22.8-.5-2.2-1-4.3-1.5-6.5 0 .1-.1.1-.2.1zM623.6 66.1v29.6c0 .9-.2 1.3-1.1 1.2-.8-.1-1.7-.1-2.5 0-.8 0-.9-.3-.9-1V57c0-.9.3-1.1 1.1-1.1h4.4c.8 0 1 .3 1.2 1l6 26.1.3 1.2c.3-.5.2-.9.2-1.3V57.3c0-1.1.3-1.6 1.4-1.4 1 .1 2.3-.4 3 .3.6.6.2 1.9.2 2.9v36.3c0 1.5 0 1.5-1.6 1.5-1.1 0-2.2-.1-3.2 0-.9.1-1.2-.3-1.4-1.1-2.2-9.5-4.3-19-6.5-28.5-.1-.4-.2-.7-.3-1.1-.2-.1-.3-.1-.3-.1zM768.3 12.5v29.3c0 1.2-.2 1.7-1.5 1.5-.6-.1-1.3-.1-1.9 0-1 .1-1.2-.3-1.2-1.2V3.5c0-1 .3-1.2 1.2-1.2 1.4.1 2.9.1 4.3 0 .8 0 1.1.2 1.3 1 1.9 8.3 3.8 16.5 5.7 24.8.2.8.4 1.5.7 2.2V29 3.5c0-1 .2-1.4 1.3-1.3.7.1 1.4.1 2.2 0 1-.1 1.2.3 1.2 1.2V42c0 .9-.2 1.3-1.2 1.2-1.1-.1-2.2-.1-3.2 0-1.2.1-1.6-.4-1.8-1.5-2.2-9.6-4.4-19.1-6.6-28.6-.1-.3-.2-.5-.2-.8-.2.2-.3.2-.3.2zM585 30.2v-1.3V3.7c0-1.2.3-1.6 1.5-1.4.7.1 1.4.1 2 0 .9-.1 1.1.3 1.1 1.1v38.5c0 1.1-.3 1.4-1.3 1.3-1.1-.1-2.2-.1-3.4 0-1.1.1-1.3-.5-1.5-1.3-2.2-9.5-4.4-19-6.5-28.5-.1-.4-.1-.8-.5-1.1v29.4c0 1.5 0 1.5-1.6 1.5-3 0-3 0-3-2.9V3.6c0-1.1.2-1.5 1.4-1.4 1.3.1 2.6.1 4 0 1-.1 1.4.3 1.6 1.2 1.6 7 3.2 14.1 4.8 21.1.4 1.8.9 3.7 1.3 5.5 0 .2.1.2.1.2zM962.4 24c3 1.1 3.6 3.4 3.5 6.1v12.2c0 .9-.3 1.2-1.2 1.1-1.2-.1-2.7.5-3.4-.3-.7-.7-.2-2.2-.2-3.4V29.5c0-2.2-1.1-3.3-3.3-3.4h-2.6c-.9-.1-1.1.3-1.1 1.1V42c0 1-.2 1.5-1.3 1.3-1.1-.2-2.5.5-3.2-.3-.7-.7-.2-2.1-.2-3.1V3.7c0-1.1.2-1.5 1.4-1.4 2.5.1 5 0 7.4 0 4.8 0 7.1 1.9 7.6 6.6.3 3.2.1 6.4 0 9.6 0 2.4-.9 4.4-3.4 5.5zm-8.2-9.7v3.9c0 1.2-.5 2.7.3 3.4.8.7 2.3.2 3.5.2 2.1 0 3.1-1 3.2-3.1.1-3.1.1-6.2 0-9.3 0-1.8-1.1-2.7-2.9-2.8h-3c-.8 0-1 .2-1 1 0 2.3-.1 4.5-.1 6.7zM640.4 24c2.9 1.1 3.5 3.2 3.4 5.7v12.5c0 1-.3 1.3-1.3 1.2-.7-.1-1.4-.1-2.2 0-1 .1-1.4-.2-1.4-1.3.1-3.9 0-7.8 0-11.7v-1.3c-.1-1.6-.8-2.4-2.4-2.7-1.4-.3-3.1-.6-4.2.1-.8.5-.2 2.2-.2 3.3v12.1c0 1.6 0 1.6-1.7 1.6h-2.2c-.7.1-1-.2-1-.9v-4V3.9c0-1 .2-1.4 1.3-1.4 2.6.1 5.3 0 7.9 0 4.5 0 7.1 2.6 7.1 7V18c.2 2.4-.4 4.6-3.1 6zm-1.4-9.8V9.4c-.1-1.6-1-2.6-2.6-2.6H633c-.5 0-.8.1-.8.7v13.6c0 .6.3.8.9.8h3c1.9-.1 2.9-1.1 2.9-2.9v-4.8zM826.3 77.6c2.8 1 3.5 3 3.5 5.6-.1 4.2 0 8.4 0 12.6 0 .9-.2 1.3-1.1 1.1-1.2-.1-2.7.5-3.4-.3-.7-.7-.2-2.2-.2-3.4V83.1c0-2.4-1-3.4-3.4-3.4-1.1 0-2.4-.5-3.1.2-.8.7-.2 2.1-.3 3.2v12.6c0 .8-.2 1.2-1.1 1.1-.8-.1-1.7-.1-2.5 0-.9.1-1.3-.2-1.2-1.2.1-1.2 0-2.4 0-3.6V57.2c0-1.1.3-1.4 1.4-1.4 3 .1 5.9-.1 8.9.2 3.7.4 6 2.7 6.1 6.5.1 3.2.1 6.5 0 9.7-.3 2.3-1.2 4.2-3.6 5.4zm-8.2-9.8v6.7c0 .5-.1 1 .7 1 1.2 0 2.3.1 3.5 0 1.6-.1 2.6-1.2 2.6-2.7v-9.9c0-1.5-.9-2.3-2.4-2.4-1.1-.1-2.2 0-3.4 0-.8 0-1 .3-1 1v6.3zM836.7 76.4V57.2c0-1 .3-1.4 1.3-1.4 2.7.1 5.3-.1 8 .2 4.9.5 7.5 3.1 7.6 8.2.1 8.1.1 16.2 0 24.3 0 1.3-.3 2.7-.8 4-1.2 2.9-3.6 4.1-6.5 4.3-2.9.2-5.8 0-8.8.1-1 0-.9-.6-.9-1.2.1-6.4.1-12.9.1-19.3zm4.8 0v12.9c0 3.3 0 3.3 3.3 3.2 2.5-.1 4-1.5 4.1-4v-3-20.7c0-2.7-1.2-4.1-3.8-4.5-.8-.1-1.6 0-2.4-.1-1-.1-1.2.3-1.2 1.2v15zM456.4 22.8V3.6c0-1 .2-1.3 1.2-1.3 3.1.2 6.2-.3 9.3.3 3.7.6 5.9 3.2 6.2 7 .1 1.8.2 3.6.2 5.4v18.4c0 1.5-.1 3.1-.6 4.6-.9 3.1-3 4.6-6 5.1-3.2.5-6.4.1-9.6.2-.9 0-.8-.6-.8-1.1V28.4c.1-1.8.1-3.7.1-5.6zm4.8 0v13.7c0 2.8 0 2.8 2.9 2.6 3-.2 4-1.2 4.5-4.1 0-.3.1-.6.1-1V11.8c0-3.7-1.4-5.1-5.2-5.1h-.6c-1.8 0-1.6-.2-1.6 1.6-.1 4.8-.1 9.7-.1 14.5zM432.6 22.9V3.6c0-1 .3-1.3 1.3-1.2 3 .1 6-.3 9 .2 4.2.7 6.5 3.2 6.5 7.4.1 8.5.1 17.1 0 25.6-.1 4.9-3.3 7.6-8.5 7.7h-7.1c-1 0-1.2-.3-1.2-1.2V22.9zm4.8-.1v13.6c0 2.9 0 2.9 2.9 2.6 3.3-.3 4.4-1.6 4.4-4.9v-9.7-13.2c0-3.1-1.5-4.5-4.6-4.5h-1.6c-.9-.1-1.2.2-1.2 1.1.1 5 .1 10 .1 15zM766.8 76.3V57.1c0-1 .2-1.3 1.3-1.3 2.7.1 5.3-.1 8 .2 4.8.5 7.5 3.2 7.5 8.1.1 8.2.1 16.4 0 24.6-.1 5.1-3.1 8.1-8.2 8.1h-7.3c-1 0-1.3-.2-1.3-1.3V76.3zm4.8 0v13.3c0 3 0 3 3.1 2.9 2.6-.1 4.2-1.5 4.2-4.1V64.2c0-2.4-1.5-3.8-4-3.9h-2.2c-.9-.1-1.1.3-1.1 1.2v14.8zM644 76.3V57.2c0-1 .3-1.3 1.3-1.3 2.7.1 5.3-.1 8 .2 4.7.5 7.5 3.2 7.5 7.9.1 8.3.1 16.6 0 24.9-.1 4.9-3.1 7.8-8 7.9-2.6.1-5.1 0-7.7 0-.9 0-1.1-.3-1.1-1.2V76.3zm4.7.1v13.4c0 2.8 0 2.8 2.8 2.8 2.9 0 4.4-1.5 4.4-4.3V73.7v-9.2c-.1-2.5-1.5-3.9-4-4H650c-1-.1-1.4.2-1.4 1.3.2 4.7.1 9.6.1 14.6zM564.8 22.9v14.4c0 3-1.7 5.2-4.3 5.9-2.7.7-5.5.7-8.3 0-3.2-.9-4.1-3.4-4.3-6.3v-1.4-25.1c0-1.2.1-2.3.4-3.4.7-2.6 2.5-4.3 5.2-4.7 2-.3 4.1-.3 6.1 0 3.2.5 5.3 2.9 5.4 6.4-.1 4.6-.2 9.4-.2 14.2zm-4.7-.1V10.7c0-4-.4-4.4-4.4-4.3-2.2 0-3.1.9-3.1 3.1v26.8c0 2.1 1 3 3 3h1.1c2.6 0 3.4-.8 3.4-3.4V22.8zM942.5 22.8c0 4.5.1 9.1 0 13.6-.1 4.7-2.5 7.1-7.2 7.2-1.3 0-2.7.1-3.9-.1-3.7-.5-5.8-2.9-5.8-6.9-.1-9.2-.1-18.4 0-27.7 0-4.2 2.1-6.4 6.4-6.9 1.8-.2 3.5-.2 5.2.1 3.2.5 5.3 3 5.4 6.4-.1 4.8-.1 9.6-.1 14.3zm-4.8.1V10.6c0-3.7-.5-4.2-4.1-4.1-2.6 0-3.4.8-3.4 3.3v26.6c0 2 .9 2.9 2.9 3h.6c3.3 0 4-.6 4-3.9V22.9zM854.2 22.9v12.9c0 .7 0 1.4-.1 2.1-.6 3.4-2.2 5-5.5 5.5-1.9.3-3.8.3-5.7 0-3.7-.6-5.6-3-5.6-6.9V22.7 9.5c0-1 .1-2.1.4-3.1.7-2.7 2.6-4 5.2-4.4 1.9-.3 3.9-.3 5.8 0 3.4.5 5.5 3 5.5 7v13.9zm-12.3-.1v13.5c0 2.1.9 3 3 3h.8c2.9 0 3.6-.8 3.6-3.6v-25c0-3.9-.5-4.3-4.3-4.3-2.3 0-3.2.9-3.2 3.2.1 4.4.1 8.8.1 13.2zM937.6 76.4V62.9c0-4.7 2.5-7.2 7.2-7.2 1.3 0 2.6-.1 3.8.1 3.9.6 5.9 2.9 6 7.1.1 9.1.1 18.2 0 27.3 0 4.7-2.7 7.1-7.4 7.2-1.3 0-2.6.1-3.9-.2-3.5-.6-5.5-2.8-5.6-6.4-.1-4.9-.1-9.7-.1-14.4zm4.8-.1v13.5c0 2 .7 2.9 2.7 3.1 3.7.3 4.8-.5 4.8-4.2-.1-8.2 0-16.4 0-24.7 0-3.5-.7-4.2-4.2-4.1h-.1c-2.3 0-3.1.9-3.1 3.1-.1 4.5-.1 8.9-.1 13.3zM930.7 76.4v12.8c0 1-.1 2.1-.3 3.1-.7 2.9-2.7 4.5-6.3 4.9-1.8.2-3.6.2-5.4-.2-3.2-.7-5-3.1-5.1-6.9V68.3v-6c.1-3.8 2-5.9 5.7-6.6 1.9-.3 3.7-.3 5.6 0 3.7.6 5.6 2.9 5.7 6.7.1 4.7.1 9.4.1 14zm-12.3 0v13.5c0 1.9.7 2.7 2.6 3 .8.1 1.7.1 2.5 0 1.7-.3 2.4-1.1 2.4-2.8V62.8c0-1.9-.9-2.8-2.8-2.9h-1.4c-2.3 0-3.2.9-3.2 3.2-.1 4.4-.1 8.9-.1 13.3zM551.9 86.2V82c0-.7.3-1 1-1 .8 0 1.7.1 2.5 0 .9-.1 1.3.2 1.2 1.2-.1 2.6 0 5.2 0 7.8 0 2 .9 2.9 2.9 2.9h1.2c1.8-.1 2.8-1 2.8-2.7.1-2.3.1-4.6 0-6.9 0-1.4-.7-2.4-1.8-3.2-1.9-1.4-3.9-2.8-5.8-4.2-2.8-1.9-4.2-4.6-4.1-8 .1-2.1-.2-4.2.1-6.3.6-3.6 2.1-5.2 5.7-5.8 1.9-.3 3.8-.3 5.7.2 2.8.7 4.6 2.9 4.7 5.9.1 2.6 0 5.2.1 7.8 0 .6-.2 1-.9.9-1.2-.1-2.7.5-3.5-.2-.8-.7-.2-2.2-.2-3.3V63c-.1-2.3-1.1-3.1-3.9-3-2.1.1-3 1-3 3.1v5c0 1.6.6 2.8 1.8 3.7 2 1.4 3.9 2.9 5.9 4.3 2.2 1.5 3.7 3.5 3.9 6.3.2 2.9.3 5.8 0 8.6-.5 4.1-2 5.6-6.1 6.3-1.8.3-3.6.2-5.4-.2-3.1-.8-4.8-3-4.9-6.6.1-1.5.1-2.9.1-4.3zM860.4 86.2V82c0-.7.2-1 .9-1 3.8-.2 3.8-.2 3.8 3.6v5.5c0 1.9.9 2.8 2.8 2.8h1.4c1.7-.1 2.7-1 2.7-2.7.1-2.3 0-4.6 0-6.9 0-1.6-.9-2.6-2.2-3.5-2-1.4-3.9-2.9-5.9-4.3-2.5-1.8-3.6-4.2-3.6-7.2 0-2.3-.2-4.5.2-6.8.5-3.5 2.1-5.2 5.6-5.8 1.9-.3 3.9-.3 5.8.1 2.8.7 4.6 2.8 4.7 5.8.1 2.7 0 5.3.1 8 0 .6-.2.8-.8.8-3.8.2-3.8.2-3.8-3.5v-4c0-2.2-.9-3.1-3.2-3.1h-1.2c-1.6.1-2.5 1-2.6 2.6-.1 2-.1 4.1 0 6.1 0 1.2.6 2.2 1.5 2.9 2.1 1.5 4.2 3.1 6.3 4.6 2.2 1.6 3.7 3.5 3.8 6.3.2 2.8.3 5.7 0 8.5-.5 4.1-2.1 5.7-6.2 6.3-1.7.2-3.5.2-5.2-.2-3.1-.7-4.8-3.1-4.9-6.6v-4.1zM677.3 86.3V82c0-.7.2-1 .9-1 1.2.1 2.7-.5 3.5.3.7.7.2 2.1.2 3.2.1 2.1-.1 4.1.2 6.2.2 1.2.9 1.8 2 2.1.9.2 1.8.2 2.7 0 1.5-.3 2.2-1.1 2.2-2.8.1-2.2.1-4.5 0-6.7 0-1.4-.7-2.5-1.8-3.3-2.1-1.5-4.1-3-6.2-4.5-2.5-1.7-3.7-4.1-3.7-7.1v-6.1c.1-3.7 2-5.9 5.7-6.6 1.7-.3 3.5-.3 5.2 0 3.4.7 5.2 2.8 5.3 6.3.1 2.5 0 5 0 7.5 0 .7-.2.9-.9.9-.9 0-1.8-.1-2.6 0s-1.1-.2-1.1-1.1c.1-2.1 0-4.2 0-6.2 0-1.2-.1-2.5-1.5-3-1.5-.5-3.1-.7-4.5.3-.7.4-1 1.2-1 2v6.2c0 1.3.7 2.3 1.7 3 2 1.4 3.9 2.9 5.9 4.3 2.4 1.6 3.9 3.8 4 6.7.1 2.7.2 5.4-.1 8.1-.5 4.2-2.1 5.8-6.3 6.4-1.7.2-3.5.2-5.2-.2-3-.7-4.7-2.9-4.8-6.3.2-1.4.3-2.8.2-4.3.1 0 .1 0 0 0zM516.8 86.5v-4.6c0-.6.2-.9.8-.8h.1c1.2.1 2.7-.5 3.5.3.7.7.2 2.1.2 3.2v5.3c0 1.2.2 2.5 1.7 2.9 1.6.4 3.2.6 4.7-.5.6-.5.7-1.2.7-1.9.1-2.5.2-4.9 0-7.4-.1-1.2-.8-2.2-1.7-2.9-1.9-1.4-3.9-2.8-5.8-4.2-2.7-1.9-4.2-4.4-4-7.8.1-1.8 0-3.6 0-5.4 0-4 2-6.4 5.9-7 1.5-.2 3.1-.2 4.7 0 3.7.7 5.5 2.6 5.7 6.3.1 2.5 0 5.1.1 7.7 0 .6-.2.8-.8.8h-.1c-1.2-.1-2.7.5-3.5-.2-.8-.7-.2-2.2-.2-3.3-.1-1.6.2-3.2-.1-4.8-.3-1.5-1.1-2.2-2.6-2.2h-.6c-2.8 0-3.6.7-3.6 3.5V68c-.1 1.7.6 2.9 1.9 3.9 1.8 1.3 3.6 2.7 5.4 3.9 2.6 1.8 4.3 4 4.3 7.3 0 2.9.2 5.8-.2 8.7-.5 3.1-2.3 4.8-5.5 5.3-1.7.3-3.4.3-5.1 0-3.6-.6-5.5-2.8-5.7-6.5-.2-1.4-.2-2.8-.2-4.1zM678.2 2.2c3.1 0 3 0 3.5 3.1 1.4 9 2.8 18.1 4.2 27.1l1.5 9.6c.2 1-.1 1.5-1.2 1.3h-.4c-3.1 0-3.1 0-3.4-3.1-.1-.9-.4-1.9-.4-2.8 0-.8-.5-.9-1.2-.9-1.8 0-3.5.1-5.3 0-1 0-1.3.4-1.4 1.3-.1 1.6-.5 3.1-.6 4.7-.1.8-.4.9-1.1.9h-2.6c-.7 0-1-.2-.9-1 .7-4.2 1.3-8.5 2-12.7 1.1-7.1 2.2-14.2 3.3-21.2.3-1.7.5-3.3.7-5 .1-.9.4-1.4 1.4-1.2.7 0 1.3-.1 1.9-.1zm0 8.6h-.2c-.2 1.8-.5 3.6-.7 5.4-.7 5.1-1.4 10.2-2.1 15.2-.1.6.1.8.7.8h4.5c.8 0 .9-.3.8-1l-3-20.4zM417.5 2.2c3 0 2.9 0 3.4 3 1.1 7.1 2.2 14.2 3.3 21.4.8 5.3 1.6 10.5 2.4 15.8.1.7-.1 1-.8 1-1-.1-1.9 0-2.9 0-.7 0-1-.3-1-1-.2-1.7-.5-3.4-.7-5.1-.1-.7-.4-.9-1-.9h-5.8c-.6 0-.9.2-1 .9-.2 1.7-.5 3.5-.7 5.2-.1.5-.2.8-.8.8h-3c-.9 0-.8-.5-.8-1.1.4-2.3.7-4.6 1.1-7 1.1-7 2.2-14.1 3.2-21.1.6-3.7 1.1-7.4 1.7-11.1.1-.6.4-.9 1-.9.9.2 1.6.1 2.4.1zm-.1 8.8h-.3c-.2 1.6-.5 3.2-.7 4.8-.7 5.2-1.5 10.4-2.2 15.6-.1.6.1.8.7.8h4.6c.7 0 .9-.2.8-1l-2.1-14.7c-.3-1.8-.6-3.7-.8-5.5zM603.9 55.8c3 0 3 0 3.4 3 1.7 10.7 3.3 21.3 5 32 .3 1.7.5 3.3.8 5 .1.8-.1 1.2-1 1.1-1.1-.1-2.6.5-3.4-.2-.8-.7-.4-2.2-.7-3.3-.2-1 .1-2.4-.7-3.1-.7-.6-2.1-.2-3.1-.2s-2 .1-3 0-1.3.4-1.4 1.3c-.1 1.6-.5 3.2-.6 4.7-.1.6-.3.8-.9.8h-2.9c-.7 0-.9-.3-.8-.9.8-4.8 1.5-9.5 2.2-14.3 1-6.5 2-13.1 3-19.6l.9-5.4c.1-.7.4-.9 1-.8.7 0 1.5-.1 2.2-.1zm-.1 8.2c-.1.4-.2.6-.3.8-.9 6.8-1.9 13.5-2.8 20.3-.1.6.1.7.6.7 1.5 0 3-.1 4.4 0 1 0 1.2-.3 1-1.2-.9-6.7-1.9-13.6-2.9-20.6zM417.2 90.1h-1.6c-2.2 0-2.2 0-2.5 2.1-.2 1.2-.4 2.4-.5 3.7 0 .8-.4 1-1.1 1-.8 0-1.6-.1-2.4 0-1.1.1-1.2-.4-1-1.3 1.3-8 2.5-16 3.7-24 .8-4.9 1.5-9.8 2.2-14.6.1-.9.4-1.2 1.4-1.2 1.3.1 2.6.1 3.8 0 .8-.1 1.1.3 1.2 1 .5 3.3 1 6.5 1.5 9.8.9 6 1.8 12 2.8 18.1.6 3.8 1.2 7.6 1.8 11.3.1.6-.1.9-.8.8h-1.3c-2.6 0-2.6 0-2.9-2.5-.1-1.2-.4-2.4-.5-3.5-.1-.6-.4-.7-.9-.7h-2.9zm.1-25.9l-.2.2c-1 6.9-1.9 13.7-2.9 20.6-.1.6.2.7.7.7h4.4c.8 0 1.1-.1.9-1.1-.8-5.4-1.5-10.7-2.3-16.1-.1-1.3-.4-2.7-.6-4.3zM805 96.8c-2.2 0-2.2 0-2.6-2.2-.2-1.3-.4-2.5-.5-3.8-.1-.6-.3-.8-.9-.8h-5.9c-.7 0-.9.2-1 .9-.2 1.7-.5 3.4-.7 5.1-.1.6-.3.8-.9.8h-2.4c-1.4 0-1.4 0-1.2-1.4 1.7-10.8 3.3-21.6 5-32.5.3-2 .7-4.1.9-6.1.1-.8.4-1.1 1.2-1 1.3.1 2.6.1 4 0 .8-.1 1.1.3 1.2 1 .6 3.8 1.1 7.6 1.7 11.5 1.2 7.6 2.4 15.2 3.5 22.8.2 1.5.4 3.1.7 4.6.2.9 0 1.3-1 1.2-.2-.1-.6-.1-1.1-.1zm-6.9-32.4h-.3c-1 6.9-1.9 13.7-2.9 20.6-.1.7.1.8.8.8h4.6c.8 0 .9-.3.8-1-.7-4.8-1.4-9.7-2.1-14.5-.3-2-.6-3.9-.9-5.9zM892.5 2.2c3 0 3 0 3.4 2.9 1.2 7.6 2.4 15.3 3.5 22.9.7 4.8 1.5 9.5 2.2 14.3.1.8-.1 1.1-.9 1-.9-.1-1.8-.1-2.6 0-.9.1-1.1-.3-1.2-1.1-.2-1.7-.5-3.3-.7-5-.1-.7-.4-.9-1-.9h-5.8c-.7 0-.9.2-1 .9-.2 1.7-.5 3.5-.7 5.2-.1.6-.3.8-.9.8h-2.4c-1.4 0-1.4-.1-1.2-1.4l4.5-29.4c.5-3.1 1-6.3 1.4-9.4.1-.7.4-1 1.1-.9.9.2 1.6.1 2.3.1zm-.1 8.4h-.2c-1 6.9-1.9 13.9-2.9 20.8-.1.7 0 .9.8.9 1.4 0 2.9-.1 4.3 0 1.1.1 1.1-.4 1-1.3-.7-4.8-1.4-9.7-2.1-14.5-.3-2-.6-3.9-.9-5.9zM465.6 55.8c3 0 3 0 3.5 3 1.2 7.6 2.3 15.1 3.4 22.7.7 4.8 1.5 9.6 2.3 14.4.1.8-.1 1-.8 1h-2.9c-.7 0-1-.2-1-.9-.2-1.7-.5-3.3-.7-5-.1-.7-.3-.9-1-.9h-5.8c-.6 0-.9.1-1 .8-.2 1.6-.5 3.2-.6 4.9-.1.8-.3 1.2-1.2 1.1-.9-.1-1.8 0-2.6 0-.7 0-1-.1-.8-.9.9-5.5 1.7-11.1 2.6-16.6 1-6.5 2-13.1 3-19.6.2-1.1.4-2.1.5-3.2.1-.5.3-.7.8-.7.7 0 1.5-.1 2.3-.1zm-.1 8.2h-.2c-.6 4.1-1.2 8.2-1.7 12.3-.4 2.8-.8 5.5-1.2 8.3-.1.9 0 1.3 1.1 1.2 1.4-.1 2.8 0 4.2 0 .6 0 .9 0 .8-.8-.6-3.8-1.1-7.6-1.6-11.5-.5-3.2-1-6.3-1.4-9.5zM733.5 96.8c-2.1 0-2.1 0-2.5-2.1l-.6-3.9c-.1-.6-.3-.7-.8-.7h-5.9c-.8 0-.9.4-1 1-.2 1.6-.5 3.2-.7 4.9-.1.8-.5 1-1.2.9-.8 0-1.7-.1-2.5 0s-1-.2-.9-1c1.9-11.9 3.7-23.8 5.5-35.8.2-1.1.4-2.2.5-3.3.1-.6.3-1 1.1-.9 1.4.1 2.8.1 4.2 0 .7 0 1 .2 1.1.9 1 6.9 2.1 13.9 3.2 20.8l2.7 17.4c.3 2 .3 2-1.7 2-.2-.2-.3-.2-.5-.2zm-6.8-32.4h-.2c-.1.2-.2.4-.2.7-.9 6.7-1.8 13.3-2.8 20-.1.7.1.8.7.8 1.5 0 3-.1 4.4 0 1 .1 1.1-.4 1-1.2-1-6.8-1.9-13.5-2.9-20.3zM861.1 22.9V9.5c0-4.8 2.2-7.1 7-7.5 1.6-.1 3.1-.1 4.7.3 3 .6 4.8 2.8 4.9 6 .1 2.6 0 5.3.1 7.9 0 .6-.2.9-.8.8h-.1c-1.2-.1-2.6.5-3.4-.2-.8-.7-.2-2.2-.3-3.3-.1-1.4 0-2.7 0-4.1-.1-2-.9-2.9-3-3-3.8-.1-4.3.4-4.3 4.2v25.3c0 2.7.7 3.4 3.5 3.4h1.1c1.8-.1 2.7-.9 2.7-2.7.1-2.6.1-5.3 0-7.9 0-1 .3-1.3 1.2-1.2 1.1.1 2.6-.5 3.2.2.8.7.3 2.2.2 3.3 0 2.2.2 4.5-.2 6.7-.5 3.4-2.1 5.2-5.5 5.7-1.9.3-3.9.3-5.8 0-3.4-.7-5.2-2.9-5.3-6.3.1-4.7.1-9.4.1-14.2zM492.1 22.8V9.5c0-.9.1-1.8.3-2.6.6-2.3 1.9-3.9 4.2-4.5 2.4-.6 4.9-.7 7.3-.1 3.2.8 4.7 2.9 4.8 6.7.1 2.3 0 4.6 0 6.9 0 .7-.2 1-1 1-3.8.2-3.8.2-3.8-3.6V9c0-1.7-.9-2.6-2.6-2.7-4-.2-4.6.4-4.6 4.3v25.3c0 2.4.8 3.3 3.2 3.3h1.2c2-.1 3-1 3-3.1v-7.4c0-1 .2-1.4 1.2-1.3 1.1.1 2.5-.4 3.1.2.7.7.2 2.1.2 3.2v6c-.1 3.6-1.9 5.9-5.5 6.5-2.2.4-4.4.4-6.5-.1-3-.7-4.7-3.2-4.7-6.6.2-4.5.2-9.2.2-13.8zM744.1 22.8v-19c0-1.1.3-1.4 1.4-1.4 3.6.1 7.1 0 10.7 0 .8 0 1 .2 1 1 0 3.4.1 3.4-3.2 3.4h-4.2c-.7 0-.9.2-.9.9v11.7c0 .7.3.9.9.9h6c.8 0 1 .3 1 1 0 3.4.1 3.4-3.3 3.4h-3.7c-.6 0-.9.1-.9.9v12.6c0 .7.3.8 1 .8h6.4c.8 0 1.2.2 1.1 1.1-.1 1.1.5 2.5-.3 3.2-.7.6-2.1.2-3.1.2-2.8 0-5.6-.1-8.4 0-1.2 0-1.4-.4-1.4-1.4-.1-6.5-.1-12.9-.1-19.3zM650.8 22.9V3.7c0-1.1.3-1.3 1.3-1.3 3.5.1 7 .1 10.6 0 .8 0 1.1.2 1.1 1.1 0 3.3 0 3.3-3.3 3.3h-3.8c-.8 0-1.1.2-1.1 1v11.5c0 .8.3 1 1.1 1h5.9c.7 0 1 .2 1 .9.1 3.5.1 3.5-3.4 3.5h-3.6c-.7 0-.9.2-.9.9v12.5c0 .8.3.9 1 .9h6.4c.8 0 1.1.2 1 1-.1.9 0 1.8 0 2.8 0 .5-.2.7-.7.7h-11.7c-.9 0-.7-.6-.7-1.1V29c-.2-2.2-.2-4.1-.2-6.1zM503.2 75.3c.5-2 .9-4.1 1.4-6.1.9-4.1 1.8-8.2 2.6-12.4.1-.6.4-.9 1-.9h2.9c.9 0 1 .3.8 1.1l-5.7 22.8c-.4 1.7-.7 3.3-.6 5.1.1 3.6 0 7.3 0 10.9 0 .8-.2 1.2-1.1 1.1-.9-.1-1.8-.1-2.8 0-.8.1-1-.3-1-1V84.5c0-2.7-1-5.2-1.6-7.7-1.5-6.5-3.2-13.1-4.8-19.6-.2-1-.1-1.3 1-1.2.8.1 1.6.1 2.4 0 1-.1 1.3.3 1.5 1.2 1.2 6 2.5 12.1 3.7 18.1.2-.1.2 0 .3 0z"/><path class="st2" d="M574.7 150.9c1.8.9 2.2 2.2 2.1 3.9v5.2c0 3.1-1.4 4.7-4.5 4.9-2.2.1-4.3 0-6.5 0-.7 0-.8-.3-.8-.9v-25.3c0-.7.3-.9.9-.9h6.2c2.9.1 4.5 1.7 4.6 4.6v4.9c.1 1.4-.4 2.8-2 3.6zm-5.4 5.9v3.4c0 .3-.1.7.2.8.8.2 1.7.2 2.5 0 .7-.2.8-.8.8-1.5v-4.2c0-2.2-.4-2.6-2.7-2.5-.6 0-.8.2-.8.8v3.2zm0-11.5v3.1c0 .3-.1.6.3.8 1.5.7 3.1-.3 3.1-2v-3.5c0-2-.4-2.4-2.5-2.4-.7 0-1 .2-1 .9.1 1.1.1 2.1.1 3.1zM439.7 152c1.8.7 2.2 1.9 2.2 3.5v8.3c0 .8-.2 1.1-1 1-.7-.1-1.4-.1-2.2 0-.9.1-1.1-.3-1.1-1.1v-7.5c0-1.8-1.5-2.8-3.2-2.1-.5.2-.3.7-.3 1 0 2.9-.1 5.7 0 8.6 0 .9-.3 1.1-1.1 1.1-3.1 0-3.1 0-3.1-3v-22.7c0-1 .3-1.3 1.3-1.2 1.9.1 3.8 0 5.8 0 3.1 0 4.7 1.6 4.8 4.7.1 1.9.1 3.8 0 5.7.1 1.5-.4 2.9-2.1 3.7zm-5.4-6.1v3.6c0 .6.2.9.8.8h1.3c.8-.1 1.3-.5 1.3-1.3v-6.2c0-.7-.4-1.1-1.1-1.2H435c-.6 0-.8.2-.7.8v3.5z"/><path class="st1" d="M898.1 78.6v-17c0-.9-.2-1.3-1.2-1.2-1.4.1-2.7 0-4.1 0-.7 0-1-.1-1-.9.1-.9.1-1.8 0-2.6s.3-.9 1-.9h15.1c.7 0 1 .2 1 .9-.1.9-.1 1.8 0 2.6s-.3.9-1 .9h-3.8c-1-.1-1.3.2-1.3 1.3v34c0 1-.3 1.3-1.3 1.2-1.1-.1-2.5.4-3.2-.2-.7-.7-.2-2.1-.2-3.2-.1-5 0-10 0-14.9zM709.3 78.6v16.6c0 1.8.2 1.5-1.6 1.6h-2.4c-.5 0-.7-.2-.7-.7v-1-33.4c0-1.2-.3-1.5-1.5-1.4-1.2.1-2.4 0-3.6 0-.7 0-1.1-.1-1.1-1-.1-3.5-.1-3.5 3.4-3.5h12.5c.9 0 1.3.2 1.2 1.1-.1 1.1.4 2.4-.2 3.1-.7.7-2 .2-3.1.2-2.9 0-2.9 0-2.9 2.9v15.5z"/><path class="st2" d="M753 152c1.8.6 2.2 2 2.2 3.6v8.3c0 .8-.3.9-1 .9-3.3.1-3.3.1-3.3-3.1v-5.9c0-1.5-2-2.5-3.2-1.7-.4.2-.2.6-.2 1v8.6c0 .9-.3 1.1-1.2 1.1-3.1 0-3.1 0-3.1-3v-22.9c0-.9.2-1.2 1.1-1.1 2 .1 4 0 6 0 3 .1 4.5 1.4 4.7 4.3.2 2.1.1 4.3 0 6.5.1 1.4-.5 2.6-2 3.4zm-5.5-6v3.5c0 .3-.1.7.2.7.8.2 1.7.2 2.5-.1.6-.2.8-.8.8-1.5V143c0-1-.5-1.5-1.5-1.5h-1.1c-.8-.1-1 .3-.9 1 .1 1.1 0 2.3 0 3.5zM530.3 151.3v-12.6c0-.8.2-1 1-1 1.9.1 3.8 0 5.6 0 3.6.1 5.5 1.9 5.6 5.5.1 5.3.1 10.7 0 16 0 3.6-2 5.4-5.7 5.5h-5.4c-.9 0-1.2-.2-1.1-1.1v-12.3zm4.3-.1v8.9c0 .4-.2.9.5 1 2.1.4 3.2-.5 3.2-2.6v-14.2c0-2.1-.6-2.7-2.7-2.8-.9 0-1.1.2-1.1 1.1.1 2.8.1 5.7.1 8.6z"/><path class="st1" d="M700.4 25.2v17c0 1-.3 1.3-1.2 1.2-.8-.1-1.6-.1-2.4 0-.9.1-1.2-.2-1.2-1.2.1-4.6 0-9.2 0-13.8V7.9c0-.9-.2-1.3-1.2-1.2-1.4.1-2.7 0-4.1 0-.6 0-.9-.1-.9-.9-.2-3.5-.2-3.5 3.3-3.5h12.7c.9 0 1.2.2 1.2 1.1 0 3.2 0 3.2-3.2 3.2-3 0-3 0-3 3v15.6zM914.6 25.1v17.1c0 .9-.2 1.2-1.1 1.2-.8-.1-1.7-.1-2.5 0-1 .1-1.2-.3-1.2-1.2v-34c0-1.2-.3-1.5-1.5-1.4-1.3.1-2.6 0-4 0-.6 0-.9-.2-.8-.8V3.2c0-.7.3-.8.9-.8h15.3c.7 0 .9.3.8.9 0 .8-.1 1.7 0 2.5s-.3.9-1 .9h-4c-.9 0-1.2.2-1.2 1.1.3 5.8.3 11.6.3 17.3zM797.8 25.1v17.1c0 1-.3 1.3-1.2 1.2-.8-.1-1.5-.1-2.3 0-1.1.1-1.3-.4-1.3-1.4V8.1c0-1.1-.3-1.5-1.4-1.4-1.2.1-2.5 0-3.7 0-.7 0-1-.2-1-.9.1-.9 0-1.8 0-2.6 0-.7.2-.8.8-.8h15.4c.6 0 .8.2.8.8.2 3.5.2 3.5-3.3 3.5-2.9 0-2.9 0-2.9 2.8.1 5.3.1 10.4.1 15.6zM615.7 25.1v17.1c0 1-.3 1.3-1.2 1.2-.8-.1-1.5-.1-2.3 0-1.1.1-1.3-.4-1.3-1.4V8.1c0-1.1-.3-1.5-1.4-1.4-1.2.1-2.5 0-3.7 0-.7 0-1-.2-1-.9.1-.9 0-1.8 0-2.6 0-.7.2-.8.8-.8H621c.6 0 .8.2.8.8.2 3.5.2 3.5-3.3 3.5-2.9 0-2.9 0-2.9 2.8.1 5.3.1 10.4.1 15.6zM519.7 25.1V8c0-1-.3-1.3-1.3-1.3-1.3.1-2.6 0-4 0-.8 0-1-.3-1-1 0-3.3-.1-3.3 3.2-3.3h12.7c.9 0 1.2.2 1.1 1.1-.1 1 .4 2.3-.2 3-.6.7-2 .2-3 .2-2.9 0-2.9 0-2.9 2.9v32.2c0 1.2-.2 1.7-1.5 1.5-1.1-.2-2.4.5-3.1-.3-.6-.7-.2-2-.2-3 .2-4.9.2-9.9.2-14.9z"/><path class="st2" d="M641.6 151.3v-12.5c0-.9.3-1.2 1.1-1.1 1 .1 2.3-.3 2.9.2.7.5.2 1.9.2 2.8v7.3c0 .7.1 1 .9 1 3 0 3 .1 3-2.8v-7.5c0-.7.2-1 .9-.9.8.1 1.7.1 2.5 0 .6 0 .8.2.8.8v25.3c0 .7-.2.9-.9.9-3.3.1-3.3.2-3.3-3.2v-7.8c0-.7-.2-.9-.9-.9-3-.1-3-.1-3 2.9v7.9c0 .8-.2 1-1 1-3.3 0-3.3.1-3.3-3.2.1-3.3.1-6.7.1-10.2zM816.7 164.9h-4.5c-2.4-.3-3.8-1.7-3.9-4.1-.1-6.3-.1-12.7 0-19 0-2.4 1.3-3.8 3.7-4.1 1.5-.2 3.1-.2 4.7 0 2.5.3 3.8 1.9 3.8 4.4.1 6.1 0 12.3 0 18.4 0 2.5-1.3 4-3.8 4.4zm-4.2-13.6v8.3c0 1.3.5 1.7 1.9 1.7 1.6 0 2-.3 2-1.7V143c0-1.5-.4-1.7-2.1-1.7-1.4 0-1.8.4-1.8 1.8v8.2zM839 164.9h-4.7c-2.5-.4-3.8-1.8-3.8-4.5-.1-6.1-.1-12.1 0-18.2.1-3 1.7-4.5 4.7-4.6 1.4 0 2.8-.2 4.2.2 2 .5 3.3 1.8 3.3 3.9.1 6.5.1 12.9 0 19.4-.1 2-1.4 3.3-3.7 3.8zm-.4-13.7v-8c0-1.7-.3-1.9-2-1.9-1.6 0-1.9.3-1.9 1.9v16.2c0 1.6.3 2 1.9 2 1.5 0 1.9-.4 1.9-2 .1-2.8.1-5.5.1-8.2zM796.2 152c1.8.8 2.1 2.1 2.1 3.7-.1 2.7 0 5.3 0 8 0 .8-.2 1-1 1-3.1 0-3.1.1-3.1-3.1V156c0-1.8-1.6-2.8-3.2-2.1-.5.2-.3.7-.3 1v8.6c0 .9-.3 1.1-1.2 1.1-3 0-3 0-3-3.1v-22.6c0-1.1.3-1.4 1.4-1.3 1.9.1 3.8 0 5.8 0 3 .1 4.6 1.6 4.7 4.6.1 1.8 0 3.6 0 5.4-.1 1.9-.4 3.4-2.2 4.4zm-5.6-6.1v3.6c0 .3-.1.5.3.7 1.4.8 3.2-.3 3.3-1.9v-4.4c0-2.2-.5-2.6-2.7-2.5-.6 0-.8.2-.8.9 0 1.2-.1 2.4-.1 3.6z"/><path class="st1" d="M819.2 22.8V3.6c0-.9.2-1.3 1.2-1.2.7.1 1.4.1 2.2 0 1.1-.1 1.5.2 1.5 1.4-.1 3.3 0 6.6 0 9.9v23.8c0 1 .2 1.4 1.3 1.3 1.8-.1 3.6 0 5.4 0 .9 0 1.2.3 1.1 1.2-.1.7-.1 1.4 0 2 .1 1-.2 1.3-1.2 1.3-3.4-.1-6.8-.1-10.2 0-1 0-1.2-.3-1.2-1.2-.1-6.4-.1-12.9-.1-19.3zM480.7 76.3V57.1c0-1 .3-1.4 1.3-1.3 1.1.1 2.5-.4 3.2.2.8.7.2 2.1.2 3.2v31.6c0 1.8-.2 1.6 1.6 1.6h5.2c.7 0 1.1.1 1.1 1 .1 3.4.1 3.4-3.3 3.4h-8c-1 0-1.3-.2-1.3-1.3V76.3zM961.6 76.5V57.2c0-1 .2-1.4 1.3-1.3 1.1.1 2.5-.5 3.2.2.8.7.3 2.2.3 3.3v31.7c0 1 .2 1.4 1.3 1.3 1.8-.1 3.6 0 5.4 0 .8 0 1 .2 1 1 0 3.4.1 3.4-3.3 3.4h-7.9c-1 0-1.3-.2-1.3-1.3.1-6.3 0-12.7 0-19z"/><path class="st2" d="M627.9 164.9h-4c-2.4-.3-3.7-1.6-3.8-4-.1-2 0-3.9-.1-5.9 0-.6.2-.8.7-.8h.1c3.2-.1 3.2-.1 3.2 3.1v2.6c0 1 .7 1.3 1.6 1.3.9 0 1.9 0 2-1.2.1-1.4.1-2.9 0-4.3 0-.8-.6-1.4-1.2-1.8-1.4-1-2.7-2-4.1-3-1.6-1.1-2.4-2.6-2.4-4.6v-4.5c.1-2.4 1.4-3.8 3.8-4.2 1.4-.2 2.8-.2 4.2 0 2.4.4 3.6 1.7 3.7 4.1.1 1.6 0 3.3 0 4.9 0 .6-.2.7-.8.7-3.3.2-3.3.2-3.3-3.1V143c0-1.4-.4-1.9-1.7-1.9-1.4 0-1.7.5-1.9 1.9-.3 2.7.4 4.8 3 6.1 1 .5 1.8 1.3 2.7 2 1.3 1 2 2.2 2 3.9 0 1.9.1 3.8 0 5.7 0 2.5-1.3 3.9-3.7 4.2zM416.3 164.9h-4.5c-2.3-.4-3.4-1.5-3.7-3.8-.2-1.2-.1-2.5-.1-3.7v-14.5c0-3.8 1.6-5.4 5.4-5.4h2.3c2.7.2 4.2 1.6 4.4 4.3.1 1.8 0 3.7 0 5.5 0 .6-.2.7-.8.8-3.4.2-3.4.2-3.4-3.2v-2.2c-.1-1.2-.4-1.5-1.9-1.5-1.3 0-1.8.3-1.8 1.5V159.4c0 1.4.5 1.7 2 1.7 1.4 0 1.8-.4 1.8-1.8v-5c0-.7.2-.9.9-.9 3.3-.1 3.3-.1 3.3 3.2v3.9c-.3 2.7-1.5 4-3.9 4.4zM674.3 164.8c-2.4-.1-1.8.4-2.2-1.9-.4-2.3-.3-2.3-2.6-2.3-1.9 0-1.9 0-2.2 1.9-.3 2.3-.3 2.3-2.7 2.3-1.5 0-1.5 0-1.3-1.4 1.2-8.2 2.3-16.3 3.5-24.5.1-.8.3-1.1 1.2-1 1.3.1 2.6 0 3.8 0 .6 0 .8.2.8.7 1.2 8.3 2.4 16.7 3.6 25 .1 1-.1 1.4-1.1 1.3-.2-.2-.5-.1-.8-.1zm-4.5-20.5c-.3.5-.3.9-.4 1.3-.3 2.9-.7 5.8-1 8.8-.4 2.9-.6 2.3 2.1 2.4.7 0 .9-.2.8-.9-.5-3.8-1-7.6-1.5-11.6zM476.8 137.8c2.7 0 2.8 0 3.2 2.7 1.2 7.8 2.3 15.7 3.4 23.5.1.6-.1.8-.7.8h-.1c-3.3.1-3.3.1-3.7-3.2-.1-.8-.3-1.1-1.2-1-1 .1-2.3-.4-3 .2-.7.6-.4 1.9-.5 2.8-.1.8-.3 1.2-1.3 1.2-2.8-.1-2.8 0-2.4-2.7l3.3-23.4c.1-.7.3-.9 1-.9h2zm-.1 6.4h-.2c-.4 3.5-.9 6.9-1.2 10.4-.2 2.2-.2 2.2 2.1 2.2.7 0 .9-.3.8-.9l-1.5-11.7zM765.3 151.2v-12.3c0-.9.3-1.1 1.1-1.1 1.8.1 3.6 0 5.4 0 3.2 0 4.8 1.3 5 4.4.2 2.9.2 5.8 0 8.7-.3 2.7-1.8 4-4.5 4.1-.9 0-2-.4-2.5.2-.6.6-.2 1.7-.2 2.6v6c0 .7-.2 1-.9 1-3.3.1-3.3.1-3.3-3.2-.1-3.5-.1-6.9-.1-10.4zm4.1-4.8v4.1c0 .3-.1.7.2.7.7.2 1.5.2 2.2-.1.6-.2.7-.8.7-1.4v-6.1c0-1.9-.4-2.2-2.2-2.2-.8 0-1 .2-.9 1 .1 1.3 0 2.7 0 4z"/><path class="st1" d="M480.4 22.9V3.7c0-1 .1-1.5 1.3-1.3 1.1.2 2.6-.5 3.3.3.7.7.2 2.1.2 3.2v36c0 1.2-.3 1.6-1.5 1.4-.7-.1-1.5-.1-2.3 0-.9.1-1.1-.2-1.1-1.1.1-6.4.1-12.8.1-19.3zM536.1 22.9V3.7c0-1 .1-1.5 1.3-1.4 1.1.2 2.7-.5 3.3.3.6.7.2 2.1.2 3.2V42c0 1.1-.3 1.4-1.3 1.3-.8-.1-1.6-.1-2.4 0-.8.1-1.1-.2-1.1-1.1v-8.1-11.2zM544.9 76.5v19.2c0 1-.3 1.4-1.3 1.2-1.1-.1-2.6.5-3.3-.3-.7-.7-.2-2.1-.2-3.2v-36c0-1.1.3-1.5 1.4-1.4 1.1.1 2.4-.4 3.1.2.7.7.2 2 .2 3.1.1 5.7.1 11.4.1 17.2z"/><path class="st2" d="M724.2 151.2v-12.3c0-.9.3-1.1 1.1-1.1 2.4.1 4.8 0 7.2 0 .7 0 1 .1 1 .9 0 2.9.1 2.9-2.8 2.9-2.3 0-2.3 0-2.3 2.2v4.3c0 .8.3 1 1 1 1-.1 2 0 3 0 .6 0 .8.2.8.8.1 3 .1 3-2.9 3-1.9 0-1.9 0-1.9 1.9v5.4c0 .6.2.8.8.8h3.4c.8 0 .9.2.9 1 0 2.8.1 2.8-2.8 2.8-1.7 0-3.4-.1-5.2 0-1.1 0-1.4-.2-1.4-1.4.2-4 .1-8.1.1-12.2zM452 151.2v-12.3c0-.9.3-1.1 1.1-1.1 2.4.1 4.8 0 7.2 0 .7 0 .9.2.9.9.1 2.9.1 2.9-2.9 2.9-2.2 0-2.2 0-2.2 2.2 0 1.4.1 2.8 0 4.2 0 .9.2 1.2 1.1 1.1 1-.1 2 0 3 0 .6 0 .8.2.8.8v.1c.1 3 .1 3-2.8 3-2 0-2 0-2 2v5.3c0 .6.2.8.8.8h3.5c.3 0 .8-.1.8.3.1 1.1.1 2.1 0 3.2 0 .3-.4.3-.7.3h-7.8c-.8 0-.8-.5-.8-1v-12.7zM585.5 137.8h3.8c.7 0 .7.6.7 1 .7 3.3 1.3 6.6 2.1 9.9.6-2.6 1.1-5.1 1.7-7.7v-.2c.6-3 .6-2.9 3.6-2.9 1 0 1 .4.8 1.1-1.3 4.9-2.5 9.9-3.8 14.8-.5 1.9-.3 3.8-.4 5.7v4.5c0 .6-.2.9-.8.8h-2.6c-.5 0-.9-.1-.8-.7v-.2c.8-7.2-1.3-14-3.1-20.8-.4-1.8-.8-3.5-1.2-5.3zM511.3 151.3v-12.2c0-1.1.3-1.3 1.3-1.3 2.3.1 4.6 0 6.8 0 .7 0 1 .1 1 1 0 2.9 0 2.9-2.9 2.9-2.2 0-2.2 0-2.2 2.2v4.5c0 .6.2.8.8.8h3.2c1.3 0 .9 1 .7 1.4-.2.8.9 2.1-.7 2.4-1.1.2-2.2.1-3.2 0-.6 0-.9.1-.8.8v6.5c0 .7.3.8.9.8h3.4c.6 0 .8.2.8.8.1 3 .1 3-2.9 3h-5.3c-.8 0-1.1-.2-1.1-1.1.2-4.2.2-8.4.2-12.5zM852.8 151.2V139c0-1 .3-1.3 1.3-1.2 2.3.1 4.6.1 6.8 0 .8 0 1 .3 1 1 0 2.8 0 2.8-2.8 2.8-2.1 0-2.1 0-2.1 2.1 0 1.5.1 3 0 4.5-.1.9.3 1.2 1.2 1.1h1c.8.1 2.1-.4 2.4.2.4.9.2 2.1.2 3.2 0 .5-.3.5-.7.5h-3c-.8-.1-1 .3-1 1v9.5c0 .9-.2 1.3-1.2 1.2-3 0-3 0-3-3.1-.1-3.6-.1-7.1-.1-10.6zM494.1 153.2v-10.5c0-.9-.2-1.2-1.1-1.2-2.6 0-2.6 0-2.6-2.6 0-.9.2-1.2 1.2-1.2 3.2.1 6.3 0 9.5 0 .7 0 1.1.1.9.9v.1c0 2.7 0 2.8-2.7 2.8-.9 0-1 .4-1 1.1v20.8c0 1-.2 1.3-1.2 1.3-3-.1-3 0-3-3.1v-8.4zM707.1 153.1v-10.5c0-.8-.2-1-1-1-2.7 0-2.7 0-2.7-2.8 0-.7.1-1 1-1h9.7c.8 0 .9.2.9 1 0 2.8 0 2.8-2.7 2.8-.9 0-1 .4-1 1.1v20.7c0 1.1-.2 1.4-1.4 1.4-2.9-.1-2.9 0-2.9-2.8.1-3 .1-6 .1-8.9zM691.3 153.1v10.6c0 .8-.2 1-1 1-3.1 0-3.1.1-3.1-3.1v-18.9c0-1-.2-1.3-1.2-1.3-2.6.1-2.5 0-2.6-2.5 0-1 .2-1.3 1.2-1.3 3.2.1 6.3 0 9.5 0 .7 0 1 .1 1 .9 0 2.8.1 2.9-2.8 2.9-.8 0-1 .3-1 1v10.7zM383 157.3c-.5 2.2-.9 4.4-1.4 6.6-.1.5 0 1-.9 1-.8 0-.7-.6-.8-1.1-.5-2.2-.9-4.4-1.4-6.6v6.7c0 .5.1 1-.7 1-.7 0-.6-.5-.6-.9v-9.2c0-.5-.2-1 .7-1 .6 0 1.3-.2 1.4.8.4 2.2.8 4.5 1.2 6.7 0 .2.1.5.4.6.5-2.5 1.1-4.8 1.5-7.3.2-1 .7-.8 1.4-.9.8-.1.6.5.6 1v9.2c0 .4.2.9-.5.9-.8 0-.7-.5-.7-.9v-6.7c-.1.1-.1.1-.2.1z"/><path class="st1" d="M579.4 93.1c.2 3-.4 5.8-2.3 8.2-.5.6-1.6.8-2.2.3-.4-.3-.1-.6.1-.8.5-.9.8-1.9 1.1-2.9.1-.5.1-1-.6-.9-.7.1-.8-.3-.8-.9v-5c0-.7.2-.9.9-.9h2.9c.7 0 1 .2 1 1-.1.5-.1 1.2-.1 1.9z"/><path class="st0" d="M39.1 35.7c.6 5.2 1.3 10.4 1.9 15.5.9 7.5 1.9 14.9 2.8 22.4.9 7.4 1.8 14.7 2.7 22.1.8 6.2 1.5 12.3 2.3 18.5.3 2 .3 2-1.7 2H30.3c-1.1 0-1.3-.3-1.2-1.3.8-6.2 1.5-12.3 2.3-18.5.8-7 1.7-13.9 2.6-20.9.9-7.7 1.9-15.3 2.8-23 .7-5.6 1.4-11.2 2-16.8h.3zM250.2 35.6c.5 3.9 1 7.9 1.5 11.8.9 7.4 1.9 14.9 2.8 22.3.8 6.7 1.7 13.4 2.5 20.1.9 7.4 1.9 14.9 2.8 22.3.1 1 .2 2.1.4 3.1.1.7 0 1-.9 1h-18c-.8 0-1-.2-.9-1l2.1-17.1c.8-6.2 1.5-12.4 2.3-18.6.8-6.9 1.7-13.8 2.5-20.8s1.7-14 2.6-21l.3-2.1c-.1 0 0 0 0 0zM954.2 14.3V7.7c0-.8.2-1 1-1 1 .1 2 0 3 0 1.8 0 2.9 1 2.9 2.8.1 3.1.1 6.2 0 9.3 0 2.1-1.1 3-3.2 3.1-1.2 0-2.7.5-3.5-.2-.8-.7-.2-2.3-.3-3.4.1-1.4.1-2.7.1-4zM639 14.2V19c-.1 1.8-1.1 2.9-2.9 2.9h-3c-.6 0-.9-.2-.9-.8V7.5c0-.6.3-.7.8-.7h3.4c1.6.1 2.6 1 2.6 2.6v4.8zM818.1 67.8v-6.5c0-.8.2-1.1 1-1 1.1.1 2.2 0 3.4 0 1.5.1 2.4.9 2.4 2.4v9.9c0 1.6-1 2.6-2.6 2.7-1.2.1-2.3 0-3.5 0-.8 0-.7-.5-.7-1v-6.5zM841.5 76.4v-15c0-.9.3-1.3 1.2-1.2.8.1 1.6 0 2.4.1 2.6.4 3.8 1.7 3.8 4.5v23.7c-.1 2.5-1.6 3.9-4.1 4-3.3.1-3.3.1-3.3-3.2V76.4zM461.2 22.8V8.3c0-1.8-.2-1.5 1.6-1.6h.6c3.8 0 5.2 1.4 5.2 5.1V34c0 .3 0 .6-.1 1-.4 2.9-1.5 3.9-4.5 4.1-2.9.2-2.9.2-2.9-2.6.1-4.6.1-9.2.1-13.7zM437.4 22.8v-15c0-.9.3-1.2 1.2-1.1.5.1 1 0 1.6 0 3.1 0 4.6 1.5 4.6 4.5v22.9c0 3.3-1.1 4.6-4.4 4.9-2.9.3-2.9.3-2.9-2.6-.1-4.5-.1-9-.1-13.6zM771.6 76.3V61.5c0-.9.2-1.3 1.1-1.2.7.1 1.4 0 2.2 0 2.4.1 3.9 1.5 4 3.9.1 8.1.1 16.1 0 24.2 0 2.6-1.6 4-4.2 4.1-3.1.1-3.1.1-3.1-2.9V76.3zM648.7 76.4V61.7c0-1.1.3-1.4 1.4-1.3.6.1 1.3 0 1.9 0 2.5.1 3.9 1.5 4 4 .1 3.1 0 6.1 0 9.2v14.6c0 2.9-1.5 4.3-4.4 4.3-2.8 0-2.8 0-2.8-2.8-.1-4.4-.1-8.9-.1-13.3zM560.1 22.8V36c0 2.5-.8 3.3-3.4 3.4h-1.1c-2.1-.1-3-1-3-3V9.6c0-2.2.9-3 3.1-3.1 4-.1 4.4.4 4.4 4.3v12zM937.7 22.9v12.6c0 3.2-.7 3.9-4 3.9h-.6c-2-.1-2.9-1-2.9-3v-11V9.8c0-2.5.8-3.3 3.4-3.3 3.6 0 4.1.5 4.1 4.1v12.3zM841.9 22.8V9.6c0-2.3.8-3.2 3.2-3.2 3.8 0 4.3.4 4.3 4.3v25c0 2.8-.8 3.6-3.6 3.6h-.8c-2.1-.1-3-1-3-3-.1-4.5-.1-9-.1-13.5zM942.4 76.3V63c0-2.2.9-3.1 3.1-3.1h.1c3.5 0 4.2.7 4.2 4.1 0 8.2-.1 16.4 0 24.7 0 3.7-1.1 4.4-4.8 4.2-2-.1-2.7-1-2.7-3.1.1-4.5.1-9 .1-13.5zM918.4 76.4V63.1c0-2.3.9-3.2 3.2-3.2h1.4c1.9.1 2.8 1 2.8 2.9v27.3c0 1.7-.7 2.4-2.4 2.8-.8.2-1.7.2-2.5 0-1.9-.3-2.6-1.1-2.6-3 .1-4.5.1-9 .1-13.5zM678.2 10.8c1 6.8 1.9 13.6 2.9 20.4.1.7 0 1-.8 1h-4.5c-.6 0-.8-.1-.7-.8.7-5.1 1.4-10.2 2.1-15.2.2-1.8.5-3.6.7-5.4h.3zM417.4 11c.3 1.9.6 3.7.8 5.6.7 4.9 1.3 9.8 2.1 14.7.1.8-.1 1-.8 1h-4.6c-.6 0-.8-.2-.7-.8.7-5.2 1.5-10.4 2.2-15.6.2-1.6.5-3.2.7-4.8.1-.1.2-.1.3-.1zM603.8 64c1 7 2 13.8 3 20.6.1.9-.1 1.2-1 1.2-1.5-.1-3 0-4.4 0-.5 0-.7-.1-.6-.7 1-6.8 1.9-13.5 2.8-20.3 0-.2 0-.3.2-.8zM417.3 64.2c.2 1.6.5 3 .7 4.4.8 5.4 1.5 10.7 2.3 16.1.1.9-.1 1.1-.9 1.1H415c-.5 0-.8-.1-.7-.7 1-6.9 1.9-13.7 2.9-20.6-.1 0-.1-.1.1-.3zM798.1 64.4c.3 2 .6 3.9.8 5.9.7 4.8 1.4 9.7 2.1 14.5.1.7.1 1-.8 1-1.5-.1-3 0-4.6 0-.6 0-.8-.1-.8-.8 1-6.9 1.9-13.7 2.9-20.6h.4zM892.4 10.6l.9 6c.7 4.8 1.4 9.7 2.1 14.5.1.9.1 1.3-1 1.3-1.4-.1-2.9 0-4.3 0-.7 0-.9-.3-.8-.9 1-6.9 2-13.8 2.9-20.8.1-.1.1-.1.2-.1zM465.5 64c.5 3.1.9 6.3 1.4 9.4.5 3.8 1 7.7 1.6 11.5.1.8-.1.9-.8.8-1.4 0-2.8-.1-4.2 0-1 .1-1.2-.3-1.1-1.2.4-2.8.8-5.5 1.2-8.3.6-4.1 1.2-8.2 1.7-12.3.1.1.1.1.2.1zM726.7 64.4c1 6.7 1.9 13.5 2.9 20.2.1.8 0 1.3-1 1.2-1.5-.1-3 0-4.4 0-.5 0-.8-.1-.7-.8 1-6.6 1.9-13.3 2.8-20 0-.2.1-.4.2-.7.1.1.1.1.2.1zM569.3 156.8v-3.2c0-.6.2-.7.8-.8 2.3-.1 2.7.2 2.7 2.5v4.2c0 .7-.2 1.3-.8 1.5-.8.2-1.7.2-2.5 0-.3-.1-.2-.5-.2-.8v-3.4zM569.3 145.3v-3c0-.8.3-.9 1-.9 2.1 0 2.5.4 2.5 2.4v3.5c0 1.6-1.6 2.6-3.1 2-.4-.2-.3-.5-.3-.8-.1-1.1-.1-2.2-.1-3.2zM434.3 145.9v-3.6c0-.5.2-.8.7-.8h1.6c.7.1 1.1.5 1.1 1.2v6.2c0 .8-.5 1.2-1.3 1.3h-1.3c-.6.1-.8-.2-.8-.8v-3.5zM747.5 146v-3.5c0-.7.2-1.1.9-1h1.1c1 0 1.5.5 1.5 1.5v5.6c0 .7-.2 1.2-.8 1.5-.8.3-1.7.2-2.5.1-.3-.1-.2-.5-.2-.7V146zM534.6 151.2v-8.7c0-.8.2-1.1 1.1-1.1 2.1.1 2.7.7 2.7 2.8v14.2c0 2.1-1.2 3-3.2 2.6-.7-.1-.5-.6-.5-1-.2-2.9-.1-5.8-.1-8.8zM812.5 151.3V143c0-1.4.4-1.8 1.8-1.8 1.7 0 2.1.2 2.1 1.7v16.6c0 1.4-.4 1.7-2 1.7-1.4 0-1.9-.4-1.9-1.7-.1-2.7 0-5.4 0-8.2zM838.6 151.2v8c0 1.6-.4 2-1.9 2-1.6 0-1.9-.3-1.9-2V143c0-1.6.3-1.9 1.9-1.9 1.7 0 2 .3 2 1.9-.1 2.9-.1 5.6-.1 8.2zM790.6 145.9v-3.6c0-.6.2-.8.8-.9 2.3-.1 2.7.3 2.7 2.5v4.4c0 1.6-1.8 2.6-3.3 1.9-.3-.2-.2-.5-.3-.7v-.1c.1-1.2.1-2.3.1-3.5zM669.8 144.3c.5 3.9 1 7.8 1.5 11.6.1.7-.1.9-.8.9-2.7-.1-2.5.5-2.1-2.4.4-2.9.7-5.8 1-8.8.1-.4.1-.8.4-1.3zM476.7 144.2l1.5 11.7c.1.7-.1.9-.8.9-2.3.1-2.3.1-2.1-2.2.4-3.5.8-6.9 1.2-10.4h.2zM769.4 146.4v-4.1c0-.7.2-1 .9-1 1.8 0 2.2.4 2.2 2.2v6.1c0 .6-.1 1.2-.7 1.4-.7.3-1.5.2-2.2.1-.3-.1-.2-.5-.2-.7v-4z"/></g></svg>