<?xml version="1.0" encoding="utf-8"?>
<!-- Generator: Adobe Illustrator 24.0.0, SVG Export Plug-In . SVG Version: 6.00 Build 0)  -->
<svg version="1.1" id="Layer_1" xmlns="http://www.w3.org/2000/svg" xmlns:xlink="http://www.w3.org/1999/xlink" x="0px" y="0px"
	 viewBox="0 0 100 100" style="enable-background:new 0 0 100 100;" xml:space="preserve">
<style type="text/css">
	.st0{fill-rule:evenodd;clip-rule:evenodd;fill:#BCE3DE;}
</style>
<g>
	<path class="st0" d="M47.7,70.3c17.7-3,35.1-15.3,30.6-33c21.6,5.4,26.1,24.9,7.8,34.5c0,4.8,2.7,7.8,6,11.1
		c-5.4-0.6-12-3.9-17.4-7.2C74.8,75.7,59.8,78.4,47.7,70.3z M39,17.1c20.1,0,36.6,11.4,36.6,25.2c0,13.2-15,24-34.2,24.9
		c-7.5,6-17.1,12.3-21.6,13.2c3.6-3.9,7.5-8.1,6.9-14.7C12.6,62.5,2.4,53.2,2.4,42.3C2.4,28.5,18.9,17.1,39,17.1z"/>
</g>
</svg>
