<?xml version="1.0" encoding="utf-8"?>
<!-- Generator: Adobe Illustrator 23.0.4, SVG Export Plug-In . SVG Version: 6.00 Build 0)  -->
<svg version="1.1" id="Layer_1" xmlns="http://www.w3.org/2000/svg" xmlns:xlink="http://www.w3.org/1999/xlink" x="0px" y="0px"
	 viewBox="0 0 865 659.5" style="enable-background:new 0 0 865 659.5;" xml:space="preserve">
<style type="text/css">
	.st0{fill:#60BAAF;}
	.st1{fill:#939497;}
</style>
<g>
	<g>
		<path class="st0" d="M118,301.3H56.2v211h42.2V439H118c26.2,0,39.2-13,39.2-39.2v-59.4C157.2,314.2,144.2,301.3,118,301.3
			 M115,395.3c0,5.1-2.4,7.5-7.5,7.5h-9v-65.4h9c5.1,0,7.5,2.4,7.5,7.5V395.3z"/>
		<path class="st0" d="M255,412.5c11.4-4.2,18.1-13.3,18.1-31.3v-40.7c0-26.2-12.9-39.2-39.2-39.2h-63v211h42.2v-79.9h10.5
			c5.1,0,7.5,2.4,7.5,7.5v72.3h42.2v-72.6C273.4,424.3,268,416.1,255,412.5 M230.9,389c0,5.1-2.4,7.5-7.5,7.5h-10.2V338h10.2
			c5.1,0,7.5,2.4,7.5,7.5V389z"/>
		<path class="st0" d="M393.4,474.9V338.6c0-26.2-13-39.2-39.2-39.2h-27.1c-26.2,0-39.2,13-39.2,39.2v136.2
			c0,26.2,13,39.2,39.2,39.2h27.1C380.5,514.1,393.4,501.1,393.4,474.9 M351.2,470.4c0,5.1-2.4,7.5-7.5,7.5h-6
			c-5.1,0-7.5-2.4-7.5-7.5V343.2c0-5.1,2.4-7.5,7.5-7.5h6c5.1,0,7.5,2.4,7.5,7.5V470.4z"/>
		<path class="st0" d="M474.5,299.5h-27.1c-26.2,0-39.2,13-39.2,39.2v136.2c0,26.2,13,39.2,39.2,39.2h27.1c26.2,0,39.2-13,39.2-39.2
			V338.6C513.6,312.4,500.7,299.5,474.5,299.5 M471.5,470.4c0,5.1-2.4,7.5-7.6,7.5h-6c-5.1,0-7.5-2.4-7.5-7.5V343.2
			c0-5.1,2.4-7.5,7.5-7.5h6c5.2,0,7.6,2.4,7.6,7.5V470.4z"/>
		<polygon class="st0" points="605.8,339 605.8,301.3 528.9,301.3 528.9,512.3 571.1,512.3 571.1,426.1 604.2,426.1 604.2,388.4 
			571.1,388.4 571.1,339 		"/>
		<path class="st0" d="M807.4,157.8c0-0.8,0.1-1.4,0.1-2.2v-40.7c0-26.2-13-39.2-39.2-39.2h-63v82.1h-51.3v-44.4h36.2V75.7h-78.4
			v82.1h-38.8v-44.4h25.6V75.7h-93.4v37.7h25.6v44.4h-62.4v-44.4h25.6V75.7h-93.4v37.7h25.6v44.4h-41l-10.8-82.1h-57.6L306,157.8
			h-29.5V75.7h-42.2v82.1h-21.1V75.7H171v82.1h-57.4l-9.9-7.3c-5.1-3.6-7.2-6.9-7.2-13.6V117c0-5.1,2.4-7.5,7.5-7.5h3.3
			c5.1,0,7.5,2.4,7.5,7.5v28.4h41.3v-32.3c0-26.2-12.9-39.2-39.2-39.2H94.2C68,73.9,55,86.9,55,113.1v33.5c0,4.2,0.3,7.9,1.1,11.2
			H21.5v40.7h75.7l10.8,8c5.1,3.6,7.2,6.9,7.2,13.6v25.3c0,5.1-2.4,7.5-7.5,7.5h-3.9c-5.1,0-7.5-2.4-7.5-7.5v-34.7H55v38.6
			c0,26.2,13,39.2,39.2,39.2h23.5c26.2,0,39.2-13,39.2-39.2v-38.9c0-4.6-0.4-8.5-1.2-12H171v88.2h42.2v-88.2h21.1v88.2h42.2v-88.2
			h24.1l-11.6,88.2h38.3l3-30.7h26.5l3.3,30.7h41.9l-11.6-88.2h35.6v88.2h42.2v-88.2h62.4v88.2h42.2v-88.2h38.8v88.2h79V249h-36.8
			v-50.5h51.3v88.2h42.2v-79.9H758c5.1,0,7.5,2.4,7.5,7.5v72.3h42.2v-72.6c0-6.4-1-11.5-3.1-15.6h39.9v-40.7H807.4z M343.6,120.7
			l3.6,37.1h-7.1L343.6,120.7z M353.3,219.2h-19l2-20.7h15L353.3,219.2z M747.5,112.5h10.3c5.1,0,7.5,2.4,7.5,7.5v37.8h-17.8V112.5z
			"/>
		<path class="st1" d="M77.9,607.8l-10.2-7.4c-1.9-1.3-2.8-2.6-2.8-5.4v-7.3c0-2.5,1.2-3.8,3.8-3.8h1.2c2.5,0,3.8,1.2,3.8,3.8v11.6
			h9.9v-11.9c0-8.1-4-12.1-12.1-12.1h-4.2c-8.2,0-12.2,4-12.2,12.2v9c0,5.1,1.3,8.2,5.8,11.4l10.2,7.4c1.9,1.4,2.8,2.6,2.8,5.4v9
			c0,2.5-1.2,3.8-3.9,3.8h-1.3c-2.6,0-3.9-1.2-3.9-3.8v-13.5H55V630c0,8.1,4,12.1,12.1,12.1h4.4c8.2,0,12.2-4,12.2-12.2v-10.7
			C83.8,613.8,82.4,611,77.9,607.8"/>
		<polygon class="st1" points="90.5,584.8 99.5,584.8 99.5,641.6 109.6,641.6 109.6,584.8 118.6,584.8 118.6,575.7 90.5,575.7 		"/>
		<path class="st1" d="M148.7,610.5c3.7-1.5,5.7-4.3,5.7-10.2v-12.4c0-8.2-4-12.2-12.2-12.2h-16.6v65.9h10.1v-26.4h4.5
			c2.9,0,4.2,1.3,4.2,4.2v22.2h10.1v-22.4C154.6,614.2,152.9,611.6,148.7,610.5 M144.4,602.3c0,2.7-1.3,4-4.1,4h-4.5v-21.7h4.9
			c2.5,0,3.8,1.2,3.8,3.8V602.3z"/>
		<path class="st1" d="M180.1,575.1h-5.4c-8.2,0-12.2,4.1-12.2,12.2v42.5c0,8.2,4,12.2,12.2,12.2h5.4c8.2,0,12.2-4,12.2-12.2v-42.5
			C192.3,579.2,188.3,575.1,180.1,575.1 M182.2,629.4c0,2.6-1.2,3.9-3.8,3.9h-2.1c-2.6,0-3.9-1.2-3.9-3.9v-41.6
			c0-2.6,1.2-3.9,3.9-3.9h2.1c2.5,0,3.8,1.2,3.8,3.9V629.4z"/>
		<polygon class="st1" points="221.6,616.6 212.2,575.7 200.4,575.7 200.4,641.6 209.4,641.6 209.3,597.1 219.6,641.6 230.5,641.6 
			230.5,575.7 221.5,575.7 		"/>
		<path class="st1" d="M253.4,614.3h5.3v15.2c0,2.6-1.2,3.9-3.9,3.9h-2.3c-2.6,0-3.9-1.2-3.9-3.9v-41.6c0-2.6,1.2-3.9,3.9-3.9h2.1
			c2.5,0,3.8,1.2,3.8,3.9v10.1h9.9v-10.6c0-8.1-3.9-12.1-12.1-12.1h-5.3c-8.2,0-12.2,4-12.2,12.2v42.5c0,8.2,4,12.2,12.2,12.2h5.4
			c8.2,0,12.2-4,12.2-12.2v-24.3h-15.1V614.3z"/>
		<polygon class="st1" points="286.5,612.6 298.3,612.6 298.3,603.5 286.5,603.5 286.5,584.8 298.8,584.8 298.8,575.7 276.4,575.7 
			276.4,641.6 299,641.6 299,632.4 286.5,632.4 		"/>
		<path class="st1" d="M329.7,610.5c3.7-1.5,5.7-4.3,5.7-10.2v-12.4c0-8.2-4-12.2-12.2-12.2h-16.6v65.9h10.1v-26.4h4.5
			c2.9,0,4.2,1.3,4.2,4.2v22.2h10.1v-22.4C335.6,614.2,333.9,611.6,329.7,610.5 M325.4,602.3c0,2.7-1.3,4-4.1,4h-4.5v-21.7h4.9
			c2.5,0,3.8,1.2,3.8,3.8V602.3z"/>
		<polygon class="st1" points="356,584.8 365,584.8 365,641.6 375.1,641.6 375.1,584.8 384.1,584.8 384.1,575.7 356,575.7 		"/>
		<polygon class="st1" points="411,603.5 401.3,603.5 401.3,575.7 391.2,575.7 391.2,641.6 401.3,641.6 401.3,612.6 411,612.6 
			411,641.6 421,641.6 421,575.7 411,575.7 		"/>
		<path class="st1" d="M437.6,575.6l-9.4,66h9.3l1.2-10.4h10.4l1.3,10.4h10l-9.5-66H437.6z M439.9,622.3l4.1-32.9l4,32.9H439.9z"/>
		<polygon class="st1" points="488.8,616.6 479.4,575.7 467.6,575.7 467.6,641.6 476.7,641.6 476.6,597.1 486.8,641.6 497.7,641.6 
			497.7,575.7 488.7,575.7 		"/>
		<path class="st1" d="M527.9,575.6l-9.4,66h9.3l1.2-10.4h10.4l1.3,10.4h10l-9.5-66H527.9z M530.2,622.3l4.1-32.9l4.1,32.9H530.2z"
			/>
		<path class="st1" d="M573.1,575.7H558v65.9h15.1c9.8,0,14.4-4.7,14.4-14.4v-37.1C587.5,580.4,582.9,575.7,573.1,575.7
			 M577.4,626.9c0,4-1.8,5.8-5.7,5.8H568v-48.2h3.7c4,0,5.7,1.9,5.7,5.8V626.9z"/>
		<path class="st1" d="M610.7,575.7h-15.1v65.9h15.1c9.8,0,14.4-4.7,14.4-14.4v-37.1C625.1,580.4,620.4,575.7,610.7,575.7
			 M615,626.9c0,4-1.8,5.8-5.8,5.8h-3.7v-48.2h3.7c4,0,5.8,1.9,5.8,5.8V626.9z"/>
		<rect x="633.2" y="575.7" class="st1" width="10.1" height="65.9"/>
		<path class="st1" d="M670.8,629.4c0,2.6-1.2,3.9-3.8,3.9h-1.9c-2.6,0-3.9-1.2-3.9-3.9v-41.6c0-2.6,1.2-3.9,3.9-3.9h1.7
			c2.5,0,3.8,1.2,3.8,3.9v12.9h9.9v-13.5c0-8.2-4-12.1-12.1-12.1h-4.9c-8.2,0-12.2,4.1-12.2,12.2v42.5c0,8.2,4,12.2,12.2,12.2h5
			c8.2,0,12.2-4,12.2-12.2v-15.3h-9.9V629.4z"/>
		<polygon class="st1" points="687.5,584.8 696.5,584.8 696.5,641.6 706.6,641.6 706.6,584.8 715.6,584.8 715.6,575.7 687.5,575.7 
					"/>
		<rect x="722.7" y="575.7" class="st1" width="10.1" height="65.9"/>
		<path class="st1" d="M758.4,575.1h-5.4c-8.2,0-12.2,4.1-12.2,12.2v42.5c0,8.2,4,12.2,12.2,12.2h5.4c8.2,0,12.2-4,12.2-12.2v-42.5
			C770.7,579.2,766.6,575.1,758.4,575.1 M760.6,629.4c0,2.6-1.2,3.9-3.8,3.9h-2.1c-2.6,0-3.8-1.2-3.8-3.9v-41.6
			c0-2.6,1.2-3.9,3.8-3.9h2.1c2.5,0,3.8,1.2,3.8,3.9V629.4z"/>
		<polygon class="st1" points="799.9,616.6 790.5,575.7 778.7,575.7 778.7,641.6 787.8,641.6 787.7,597.1 797.9,641.6 808.9,641.6 
			808.9,575.7 799.8,575.7 		"/>
		<polygon class="st0" points="609.2,512.3 609.2,479.8 604,479.8 604,474.5 620.1,474.5 620.1,479.8 615,479.8 615,512.3 		"/>
		<polygon class="st0" points="634.7,501.1 638.4,474.5 646.9,474.5 646.9,512.3 641.3,512.3 641.3,484 637.1,512.3 631.5,512.3 
			627.4,483.9 627.4,512.3 622.4,512.3 622.4,474.5 631,474.5 		"/>
	</g>
</g>
</svg>
